<svg width="18" height="20" viewBox="0 0 18 20" fill="none" xmlns="http://www.w3.org/2000/svg">
<path d="M9.51454 1.16791V0.0978625C9.51454 0.0137554 9.40998 -0.0310226 9.34351 0.0246244L6.08577 2.75228C6.03933 2.79116 6.03933 2.85987 6.08577 2.89876L9.34351 5.62641C9.40998 5.68206 9.51454 5.63728 9.51454 5.55318V4.27569C9.51454 4.23087 9.5445 4.19195 9.59088 4.18347C11.3281 3.86579 16.547 5.83096 16.547 9.89135C16.547 12.0487 15.5475 13.0797 14.8187 13.8314C14.2214 14.4475 13.806 14.876 14.2718 15.5833C15.306 17.1535 21.3043 9.89135 15.5128 4.19943C13.5742 2.20649 10.8863 1.42343 9.60517 1.26571C9.55316 1.2593 9.51454 1.21768 9.51454 1.16791Z" fill="#C22A32"/>
<path d="M8.48545 18.8321V19.9021C8.48545 19.9862 8.59002 20.031 8.65648 19.9754L11.9142 17.2477C11.9607 17.2088 11.9607 17.1401 11.9142 17.1012L8.65648 14.3736C8.59002 14.3179 8.48545 14.3627 8.48545 14.4468V15.7243C8.48545 15.7691 8.4555 15.8081 8.40912 15.8165C6.67185 16.1342 1.45296 14.169 1.45296 10.1087C1.45296 7.95133 2.45249 6.92034 3.18127 6.16861C3.77858 5.5525 4.19401 5.12399 3.72818 4.41673C2.69399 2.84655 -3.30431 10.1086 2.48715 15.8006C4.42582 17.7935 7.11371 18.5766 8.39482 18.7343C8.44684 18.7407 8.48545 18.7823 8.48545 18.8321Z" fill="#C22A32"/>
</svg>
