<svg width="42" height="24" viewBox="0 0 42 24" fill="none" xmlns="http://www.w3.org/2000/svg">
<g clip-path="url(#clip0_69_1967)">
<g filter="url(#filter0_d_69_1967)">
<path d="M0 0H4L9.5 1.5L13 0H42V22H24L21 24L20 22.5L18 22H0V0Z" fill="#C22A32"/>
</g>
<path d="M9.49191 11.9C9.38525 12.08 9.31858 12.2 9.29191 12.26C9.27191 12.32 9.26191 12.3567 9.26191 12.37C9.26191 12.39 9.26858 12.42 9.28191 12.46C9.30191 12.4933 9.32858 12.55 9.36191 12.63V12.99C9.28858 13.05 9.23191 13.1 9.19191 13.14C9.15191 13.1733 9.12191 13.2033 9.10191 13.23C9.08191 13.25 9.06525 13.27 9.05191 13.29C9.04525 13.3033 9.03858 13.32 9.03191 13.34C8.97858 13.3667 8.93858 13.3967 8.91191 13.43C8.88525 13.4567 8.85858 13.49 8.83191 13.53L8.75191 13.86L8.61191 13.93L8.39191 14.28C8.37191 14.2933 8.35191 14.3067 8.33191 14.32C8.31858 14.3333 8.29858 14.3533 8.27191 14.38C8.24525 14.4067 8.21191 14.4433 8.17191 14.49C8.13191 14.5367 8.07858 14.6 8.01191 14.68C7.97191 14.7 7.93191 14.7133 7.89191 14.72C7.85858 14.7267 7.82858 14.73 7.80191 14.73C7.76858 14.73 7.72525 14.7233 7.67191 14.71C7.59858 14.7433 7.52191 14.76 7.44191 14.76H7.37191C7.35191 14.76 7.32858 14.7567 7.30191 14.75C7.24191 14.75 7.17858 14.7633 7.11191 14.79C7.04525 14.81 6.99525 14.8333 6.96191 14.86L6.74191 14.87C6.68858 14.91 6.64858 14.9367 6.62191 14.95C6.60191 14.9633 6.55525 14.98 6.48191 15L6.29191 14.98L5.97191 15.09C5.93858 15.0833 5.90858 15.08 5.88191 15.08C5.85525 15.0867 5.82191 15.0967 5.78191 15.11C5.76191 15.09 5.72858 15.0833 5.68191 15.09C5.64191 15.0567 5.61191 15.0333 5.59191 15.02C5.57191 15.0067 5.55525 14.9967 5.54191 14.99L5.48191 14.92C5.36858 14.8667 5.27525 14.8033 5.20191 14.73L5.10191 14.49C5.00858 14.3833 4.95191 14.3167 4.93191 14.29C4.91191 14.2633 4.90191 14.2433 4.90191 14.23L4.50191 13.95L4.38191 13.79L3.98191 13.54C3.96858 13.4933 3.95858 13.45 3.95191 13.41C3.95191 13.3633 3.95191 13.2933 3.95191 13.2C3.99858 13.1067 4.02858 13.01 4.04191 12.91C4.05525 12.8033 4.06191 12.6533 4.06191 12.46C4.05525 12.46 4.04858 12.4533 4.04191 12.44C4.04191 12.4267 4.03858 12.4033 4.03191 12.37C4.02525 12.3367 4.01858 12.2833 4.01191 12.21C4.00525 12.1367 3.99858 12.04 3.99191 11.92L3.95191 10.96C3.92525 10.8533 3.91191 10.7567 3.91191 10.67C3.91191 10.4767 3.93858 10.3267 3.99191 10.22C3.98525 9.98667 3.98191 9.81 3.98191 9.69V9.4L3.91191 8.72C3.89858 8.69333 3.88525 8.66333 3.87191 8.63C3.85858 8.59 3.84525 8.55333 3.83191 8.52C3.81191 8.46 3.79525 8.40333 3.78191 8.35C3.76858 8.29667 3.76191 8.25 3.76191 8.21C3.76191 8.17667 3.76858 8.13667 3.78191 8.09C3.79525 8.03667 3.81858 7.98667 3.85191 7.94C3.92525 7.88667 3.98191 7.84 4.02191 7.8C4.06191 7.75333 4.10525 7.69333 4.15191 7.62C4.28525 7.48 4.41525 7.33667 4.54191 7.19C4.66858 7.04333 4.75858 6.9 4.81191 6.76L5.06191 6.55C5.07525 6.51667 5.08525 6.49 5.09191 6.47C5.10525 6.45 5.13191 6.41333 5.17191 6.36C5.27191 6.33333 5.35858 6.3 5.43191 6.26C5.51858 6.26667 5.61525 6.27667 5.72191 6.29C5.82858 6.29667 5.93858 6.30667 6.05191 6.32C6.17191 6.32667 6.28858 6.33333 6.40191 6.34C6.51525 6.34667 6.62191 6.35333 6.72191 6.36L6.79191 6.31C6.83858 6.30333 6.89191 6.29667 6.95191 6.29C7.01858 6.28333 7.06191 6.27667 7.08191 6.27C7.09525 6.25667 7.12191 6.22333 7.16191 6.17C7.20858 6.15 7.24525 6.13667 7.27191 6.13C7.30525 6.12333 7.34858 6.11333 7.40191 6.1L7.53191 6.2L7.61191 6.38L7.88191 6.66L7.98191 6.71C7.99525 6.73 8.01191 6.75333 8.03191 6.78C8.05858 6.80667 8.12191 6.86667 8.22191 6.96C8.22191 7.00667 8.24525 7.05 8.29191 7.09C8.31858 7.09667 8.35191 7.11667 8.39191 7.15C8.43191 7.17667 8.49191 7.23333 8.57191 7.32C8.62525 7.39333 8.67191 7.44 8.71191 7.46C8.75191 7.47333 8.81191 7.48667 8.89191 7.5C8.97191 7.55333 9.04525 7.6 9.11191 7.64C9.18525 7.67333 9.26858 7.71 9.36191 7.75C9.42191 7.83 9.46525 7.90667 9.49191 7.98C9.47858 8 9.46858 8.02333 9.46191 8.05C9.45525 8.07 9.44525 8.10667 9.43191 8.16C9.42525 8.20667 9.41525 8.27667 9.40191 8.37C9.38858 8.45667 9.37191 8.58 9.35191 8.74L9.43191 8.97C9.43191 9.06333 9.42858 9.13 9.42191 9.17C9.42191 9.21 9.41525 9.24667 9.40191 9.28H9.31191L9.16191 9.36L8.97191 9.32L8.82191 9.34C8.74858 9.28667 8.68191 9.25 8.62191 9.23C8.56858 9.21 8.52525 9.2 8.49191 9.2C8.46525 9.2 8.43191 9.20333 8.39191 9.21C8.35858 9.21667 8.32525 9.22333 8.29191 9.23C8.24525 9.23667 8.20525 9.24 8.17191 9.24H8.07191L7.79191 9.14L7.65191 8.99C7.67191 8.95 7.68858 8.89667 7.70191 8.83C7.72191 8.76333 7.73858 8.7 7.75191 8.64C7.75858 8.55333 7.76191 8.47667 7.76191 8.41V8.22C7.76191 8.06667 7.73858 7.92333 7.69191 7.79L7.47191 7.63C7.35191 7.61667 7.26525 7.60333 7.21191 7.59C7.15858 7.57667 7.09525 7.56 7.02191 7.54L6.79191 7.53L6.69191 7.63C6.62525 7.61667 6.57858 7.61 6.55191 7.61C6.53191 7.61 6.49525 7.61333 6.44191 7.62C6.39525 7.62667 6.34191 7.63667 6.28191 7.65C6.22858 7.65667 6.17525 7.66667 6.12191 7.68C6.07525 7.69333 6.04191 7.70333 6.02191 7.71C5.96858 7.76333 5.91191 7.81667 5.85191 7.87C5.79858 7.92333 5.72525 7.99 5.63191 8.07C5.61191 8.15667 5.59525 8.25333 5.58191 8.36C5.57525 8.46 5.57191 8.54667 5.57191 8.62C5.57191 8.64667 5.57191 8.68333 5.57191 8.73C5.57858 8.77667 5.58525 8.82667 5.59191 8.88V9.12C5.57191 9.14667 5.55191 9.17333 5.53191 9.2C5.51858 9.22667 5.51191 9.26333 5.51191 9.31C5.51858 9.34333 5.52525 9.38667 5.53191 9.44C5.53858 9.49333 5.54858 9.54333 5.56191 9.59C5.57525 9.63667 5.58191 9.68 5.58191 9.72C5.58858 9.76 5.59191 9.79667 5.59191 9.83C5.59191 9.90333 5.58525 9.96 5.57191 10C5.55858 10.0333 5.53191 10.0833 5.49191 10.15L5.44191 10.25L5.50191 10.42V10.69L5.43191 10.81C5.39191 10.81 5.36525 10.82 5.35191 10.84C5.33858 10.86 5.32191 10.9 5.30191 10.96C5.33525 11.0267 5.35525 11.12 5.36191 11.24C5.37525 11.3533 5.38191 11.5267 5.38191 11.76C5.40858 11.7867 5.42858 11.82 5.44191 11.86C5.45525 11.9 5.47525 11.9967 5.50191 12.15C5.45525 12.2567 5.42525 12.3633 5.41191 12.47C5.40525 12.5233 5.39525 12.5733 5.38191 12.62C5.36858 12.66 5.35525 12.7067 5.34191 12.76C5.34191 12.7867 5.34858 12.8133 5.36191 12.84C5.37525 12.8667 5.40858 12.9167 5.46191 12.99C5.46858 13.0233 5.47525 13.0533 5.48191 13.08C5.49525 13.1067 5.51858 13.1267 5.55191 13.14C5.61191 13.1733 5.66191 13.2 5.70191 13.22C5.74191 13.2333 5.77858 13.2467 5.81191 13.26C5.84525 13.2667 5.87858 13.2767 5.91191 13.29C5.95191 13.2967 5.99858 13.3033 6.05191 13.31C6.12525 13.31 6.17191 13.2933 6.19191 13.26L6.34191 13.23C6.40858 13.19 6.47858 13.17 6.55191 13.17C6.56525 13.17 6.58858 13.1733 6.62191 13.18C6.66191 13.1867 6.70525 13.1967 6.75191 13.21C6.77191 13.2167 6.80525 13.2233 6.85191 13.23C6.90525 13.2367 6.94191 13.24 6.96191 13.24L7.19191 13.33L7.39191 13.28L7.53191 13.31C7.56525 13.2767 7.59525 13.2533 7.62191 13.24C7.65525 13.2267 7.69191 13.21 7.73191 13.19C7.77858 13.1233 7.80191 13.06 7.80191 13V12.92C7.80191 12.8933 7.80858 12.8633 7.82191 12.83V12.19L7.72191 11.79V11.74L7.84191 11.62C7.93525 11.5733 8.03525 11.55 8.14191 11.55C8.16858 11.5567 8.20858 11.56 8.26191 11.56C8.28191 11.56 8.30858 11.56 8.34191 11.56C8.38191 11.5533 8.41858 11.5467 8.45191 11.54C8.51858 11.54 8.58858 11.55 8.66191 11.57C8.69525 11.5767 8.72191 11.5833 8.74191 11.59C8.76858 11.59 8.79858 11.59 8.83191 11.59C8.92525 11.59 9.01191 11.57 9.09191 11.53L9.24191 11.55C9.30858 11.61 9.35858 11.6533 9.39191 11.68C9.43191 11.7067 9.46525 11.7267 9.49191 11.74V11.9ZM15.9995 13.09C15.9862 13.1233 15.9762 13.1633 15.9695 13.21C15.9695 13.25 15.9695 13.2867 15.9695 13.32L15.8595 13.49C15.7728 13.51 15.7062 13.5333 15.6595 13.56L15.4895 13.74C15.4428 13.74 15.4095 13.7467 15.3895 13.76C15.3695 13.7733 15.3462 13.7933 15.3195 13.82C15.2262 13.84 15.1862 13.8933 15.1995 13.98L14.8095 14.46C14.7762 14.4733 14.7495 14.49 14.7295 14.51C14.7162 14.53 14.6995 14.5567 14.6795 14.59L14.5395 14.66C14.3662 14.6533 14.2495 14.65 14.1895 14.65C14.1295 14.6433 14.0795 14.6333 14.0395 14.62L13.9795 14.66L13.5495 14.64L13.4895 14.68C13.4295 14.6667 13.3662 14.66 13.2995 14.66C13.2395 14.6533 13.1695 14.6533 13.0895 14.66L12.9695 14.73L12.6895 14.76C12.6562 14.7533 12.5962 14.7533 12.5095 14.76C12.4295 14.7667 12.3462 14.7833 12.2595 14.81H12.1595L12.0795 14.88C12.0062 14.8267 11.9195 14.7733 11.8195 14.72L11.7395 14.54C11.7128 14.5467 11.6828 14.5433 11.6495 14.53C11.6228 14.51 11.5695 14.4633 11.4895 14.39L11.1195 14.25C11.0795 14.2167 11.0428 14.1867 11.0095 14.16C10.9828 14.1333 10.9495 14.1 10.9095 14.06C10.9095 14.0467 10.8962 14.0333 10.8695 14.02C10.8495 14 10.7828 13.9567 10.6695 13.89L10.6195 13.75L10.6395 13.39C10.6128 13.3167 10.5962 13.26 10.5895 13.22C10.5828 13.1733 10.5795 13.1367 10.5795 13.11C10.5795 13.0433 10.6028 12.92 10.6495 12.74C10.6762 12.6133 10.6928 12.49 10.6995 12.37C10.6928 12.27 10.6828 12.1533 10.6695 12.02C10.6562 11.88 10.6495 11.7867 10.6495 11.74C10.6495 11.7 10.6495 11.6533 10.6495 11.6C10.6562 11.54 10.6662 11.4867 10.6795 11.44L10.6195 10.93V10.29C10.6195 10.1567 10.6228 10.08 10.6295 10.06C10.6428 10.04 10.6595 10.0333 10.6795 10.04L10.6495 9.76L10.7195 9.54C10.7062 9.41333 10.6928 9.31 10.6795 9.23C10.6728 9.15 10.6662 9.08667 10.6595 9.04C10.6528 8.99333 10.6462 8.96 10.6395 8.94C10.6328 8.91333 10.6262 8.89 10.6195 8.87L10.5995 8.49L10.7195 8.08C10.6995 7.99333 10.6895 7.92667 10.6895 7.88C10.7762 7.77333 10.8328 7.69667 10.8595 7.65C10.8928 7.59667 10.9362 7.53 10.9895 7.45C11.0295 7.45667 11.0595 7.43 11.0795 7.37C11.2195 7.29 11.3062 7.23 11.3395 7.19C11.3795 7.15 11.3995 7.11333 11.3995 7.08L11.5695 6.88L11.6195 6.72C11.6528 6.68667 11.6962 6.65667 11.7495 6.63C11.8095 6.60333 11.8728 6.58333 11.9395 6.57C12.0062 6.55 12.0695 6.53667 12.1295 6.53C12.1962 6.51667 12.2528 6.51 12.2995 6.51L12.6895 6.55C12.7428 6.54333 12.8128 6.53333 12.8995 6.52C12.9862 6.50667 13.0762 6.49 13.1695 6.47C13.2295 6.43 13.2728 6.40667 13.2995 6.4C13.3262 6.39333 13.3595 6.39 13.3995 6.39C13.4728 6.38333 13.5328 6.37667 13.5795 6.37C13.6328 6.35667 13.6795 6.35 13.7195 6.35L13.8395 6.34C13.8795 6.33333 13.9262 6.33333 13.9795 6.34C14.0395 6.32 14.0928 6.28333 14.1395 6.23L14.2095 6.24L14.6395 6.54L14.7095 6.55L15.0295 6.78C15.0495 6.85333 15.1095 6.93667 15.2095 7.03C15.2962 7.11 15.4628 7.22 15.7095 7.36L15.8295 7.55C15.8695 7.67 15.9028 7.74333 15.9295 7.77L15.9095 7.85L15.9295 7.94C15.9162 8.01333 15.9062 8.06667 15.8995 8.1C15.8928 8.13333 15.8795 8.18667 15.8595 8.26L15.8495 8.63L15.8095 8.81C15.8228 8.85667 15.8362 8.9 15.8495 8.94C15.8628 8.97333 15.8695 9.01 15.8695 9.05C15.8762 9.08333 15.8828 9.11 15.8895 9.13L15.8595 9.28L15.8495 9.61C15.8495 9.72333 15.8528 9.83 15.8595 9.93C15.8662 10.03 15.8795 10.1167 15.8995 10.19V10.7L15.9495 10.78L15.9295 10.9L15.9395 11.47L15.8595 11.64L15.8995 12.05L15.8895 12.22C15.8962 12.24 15.9028 12.27 15.9095 12.31C15.9228 12.3433 15.9295 12.3767 15.9295 12.41C15.9162 12.47 15.9028 12.5267 15.8895 12.58C15.8762 12.6267 15.8695 12.6633 15.8695 12.69C15.8695 12.77 15.8828 12.84 15.9095 12.9C15.9362 12.9533 15.9662 13.0167 15.9995 13.09ZM15.0995 12.75C15.0862 12.67 15.0695 12.5933 15.0495 12.52C15.0362 12.44 15.0228 12.3833 15.0095 12.35C15.0095 12.3033 15.0062 12.2333 14.9995 12.14C14.9995 12.0467 14.9995 11.8667 14.9995 11.6C14.9928 11.5133 15.0095 11.45 15.0495 11.41L15.0595 11.16C15.0662 11.0467 15.0595 10.94 15.0395 10.84C15.0262 10.7333 14.9962 10.6133 14.9495 10.48C14.9695 10.3867 14.9828 10.3133 14.9895 10.26L14.9995 10.14C15.0062 10.1133 15.0095 10.0967 15.0095 10.09C15.0095 10.0833 15.0062 10.0767 14.9995 10.07C15.0062 10.03 15.0162 9.99667 15.0295 9.97L15.0495 9.89C15.0562 9.86333 15.0628 9.84333 15.0695 9.83V9.54C15.0695 9.50667 15.0662 9.47333 15.0595 9.44C15.0595 9.4 15.0562 9.35 15.0495 9.29V9.17C15.0495 9.12333 15.0562 9.07667 15.0695 9.03L15.0295 8.54C15.0428 8.49333 15.0495 8.44333 15.0495 8.39C15.0562 8.33667 15.0595 8.29667 15.0595 8.27C15.0595 8.15 15.0428 8.04 15.0095 7.94C14.9762 7.83333 14.9362 7.76 14.8895 7.72L14.8995 7.66L14.6295 7.46L14.4295 7.45L14.1095 7.46C14.0828 7.44 14.0495 7.42333 14.0095 7.41C13.9695 7.39 13.8828 7.35667 13.7495 7.31L13.6695 7.26H13.2295L12.6895 7.29C12.6295 7.31 12.5728 7.33667 12.5195 7.37C12.4662 7.39667 12.4128 7.42333 12.3595 7.45L12.1395 7.46L11.9195 7.71C11.8995 7.70333 11.8728 7.71 11.8395 7.73C11.8062 7.75 11.7728 7.77667 11.7395 7.81C11.7062 7.84333 11.6728 7.87667 11.6395 7.91C11.6128 7.94333 11.5962 7.97333 11.5895 8L11.4695 8.11C11.4428 8.13 11.4228 8.15667 11.4095 8.19C11.4028 8.21667 11.4028 8.24 11.4095 8.26C11.4162 8.27333 11.4362 8.29667 11.4695 8.33C11.4695 8.35667 11.4728 8.38333 11.4795 8.41C11.4928 8.43667 11.5228 8.48 11.5695 8.54L11.6195 8.7C11.6062 8.74 11.5695 8.82333 11.5095 8.95V9.01C11.5095 9.03 11.5228 9.05 11.5495 9.07L11.5195 9.28C11.5328 9.29333 11.5428 9.30667 11.5495 9.32C11.5628 9.33333 11.5695 9.34667 11.5695 9.36L11.5495 9.46L11.5695 9.53L11.4895 9.76L11.5095 9.84C11.5095 9.93333 11.4995 10.0233 11.4795 10.11C11.5128 10.1433 11.5362 10.1733 11.5495 10.2C11.5628 10.2267 11.5695 10.28 11.5695 10.36L11.5195 10.46V11.1L11.3995 11.33L11.4195 11.4C11.4928 11.4333 11.5395 11.4567 11.5595 11.47C11.5862 11.4833 11.6062 11.4967 11.6195 11.51C11.6262 11.5567 11.6228 11.5967 11.6095 11.63C11.6028 11.6633 11.5895 11.7067 11.5695 11.76L11.6195 11.88C11.6062 11.98 11.6028 12.0533 11.6095 12.1C11.6162 12.1467 11.6262 12.1867 11.6395 12.22C11.6328 12.28 11.6228 12.34 11.6095 12.4C11.6028 12.4533 11.6062 12.51 11.6195 12.57C11.6328 12.6767 11.6528 12.7667 11.6795 12.84C11.7195 12.9267 11.7295 13.02 11.7095 13.12L11.7195 13.25L11.8295 13.3C11.8428 13.32 11.8562 13.3433 11.8695 13.37C11.8895 13.3967 11.9262 13.4467 11.9795 13.52L12.3895 13.74H12.5395C12.5795 13.74 12.6162 13.7433 12.6495 13.75C12.7095 13.7633 12.7662 13.78 12.8195 13.8C12.8795 13.8133 12.9195 13.82 12.9395 13.82C12.9728 13.8067 12.9995 13.8 13.0195 13.8H13.0695C13.1228 13.7867 13.1662 13.77 13.1995 13.75C13.2395 13.73 13.2795 13.7133 13.3195 13.7H13.4195C13.4528 13.7 13.4962 13.7067 13.5495 13.72L13.6895 13.69L14.0895 13.74C14.1362 13.68 14.1928 13.6367 14.2595 13.61L14.3795 13.6L14.6595 13.28C14.6928 13.2733 14.7295 13.26 14.7695 13.24C14.8095 13.2133 14.8662 13.1733 14.9395 13.12C14.9595 13.0667 14.9828 13.02 15.0095 12.98C15.0428 12.94 15.0695 12.8967 15.0895 12.85L15.0995 12.75ZM21.9908 9.69C21.9708 9.76333 21.9542 9.82333 21.9408 9.87C21.9342 9.91667 21.9208 9.96667 21.9008 10.02C21.8875 10.0733 21.8675 10.1433 21.8408 10.23C21.8208 10.31 21.7908 10.42 21.7508 10.56C21.7508 10.66 21.7542 10.7133 21.7608 10.72V10.85C21.7075 10.9633 21.6742 11.0433 21.6608 11.09C21.6475 11.13 21.6408 11.1633 21.6408 11.19L21.5008 11.3C21.4275 11.3067 21.3708 11.3167 21.3308 11.33C21.2908 11.3367 21.2242 11.37 21.1308 11.43C21.1175 11.4433 21.1008 11.45 21.0808 11.45C21.0608 11.45 21.0408 11.4567 21.0208 11.47C20.9875 11.5233 20.9608 11.5633 20.9408 11.59C20.9208 11.61 20.8808 11.6467 20.8208 11.7C20.7875 11.7 20.7608 11.71 20.7408 11.73C20.7275 11.7433 20.7075 11.7867 20.6808 11.86L20.5208 11.96H20.2908L20.1608 12.01C20.0675 12.0033 19.9975 12.0067 19.9508 12.02C19.9042 12.0333 19.8475 12.0667 19.7808 12.12C19.7542 12.1067 19.7242 12.1 19.6908 12.1C19.6642 12.0933 19.5942 12.0833 19.4808 12.07L19.4308 12.11L19.2708 12.09C19.2508 12.1233 19.2275 12.1433 19.2008 12.15C19.1742 12.15 19.1242 12.15 19.0508 12.15C18.9975 12.1633 18.9608 12.18 18.9408 12.2C18.9275 12.2133 18.9075 12.2367 18.8808 12.27L18.7608 12.35C18.7475 12.43 18.7342 12.5 18.7208 12.56C18.7075 12.62 18.6842 12.7033 18.6508 12.81C18.6642 12.8633 18.6775 12.9067 18.6908 12.94C18.7042 12.9733 18.7275 13.0067 18.7608 13.04L18.7508 13.62L18.7608 13.71C18.7275 13.7767 18.7075 13.8267 18.7008 13.86C18.6942 13.8933 18.6908 13.94 18.6908 14L18.7408 14.4C18.7008 14.4533 18.6542 14.5033 18.6008 14.55C18.5542 14.5967 18.5175 14.62 18.4908 14.62L18.4108 14.61C18.2575 14.6233 18.1575 14.6333 18.1108 14.64C18.0642 14.6467 18.0042 14.66 17.9308 14.68C17.9042 14.7067 17.8575 14.72 17.7908 14.72L17.6608 14.85L17.4808 14.87C17.4342 14.8367 17.3708 14.8033 17.2908 14.77L17.2308 14.69L17.1908 14.45C17.2642 14.33 17.3275 14.1467 17.3808 13.9V13.63L17.4808 13.17C17.4742 13.15 17.4642 13.1267 17.4508 13.1C17.4442 13.0733 17.4342 13.0467 17.4208 13.02V12.86C17.4208 12.8133 17.4175 12.7667 17.4108 12.72L17.4208 12.56L17.3808 12.46L17.4508 12.38C17.4375 12.3067 17.4275 12.25 17.4208 12.21C17.4142 12.17 17.4008 12.1133 17.3808 12.04V11.65C17.3675 11.47 17.3542 11.3467 17.3408 11.28C17.3342 11.2133 17.3375 11.1533 17.3508 11.1C17.3842 10.9867 17.4042 10.91 17.4108 10.87C17.4242 10.8233 17.4308 10.7833 17.4308 10.75L17.4808 10.39L17.4508 9.88L17.4608 9.18C17.4542 9.16667 17.4508 9.15 17.4508 9.13C17.4508 9.10333 17.4608 9.04333 17.4808 8.95L17.4208 8.52V8.29C17.4142 8.26333 17.4042 8.22333 17.3908 8.17C17.3842 8.11 17.3808 8.04 17.3808 7.96C17.3808 7.90667 17.3842 7.85333 17.3908 7.8C17.3975 7.74 17.4175 7.67333 17.4508 7.6L17.4108 7.38L17.4208 7.04L17.3708 6.98L17.3408 6.75L17.5808 6.43C17.6208 6.41667 17.6608 6.41 17.7008 6.41C17.7408 6.40333 17.8242 6.4 17.9508 6.4C18.0175 6.41333 18.1075 6.42667 18.2208 6.44C18.3342 6.44667 18.4142 6.44333 18.4608 6.43C18.5208 6.43667 18.5808 6.44 18.6408 6.44H18.7908C18.8175 6.44 18.8475 6.44333 18.8808 6.45C18.9208 6.45667 18.9642 6.46667 19.0108 6.48C19.0908 6.5 19.1575 6.51 19.2108 6.51H19.2608C19.2875 6.51 19.3075 6.50667 19.3208 6.5L19.7908 6.61C19.8108 6.61 19.8408 6.60667 19.8808 6.6C19.9208 6.58667 19.9575 6.57667 19.9908 6.57C20.1375 6.57 20.2642 6.58667 20.3708 6.62C20.4775 6.65333 20.5442 6.68667 20.5708 6.72L20.5808 6.8C20.6275 6.84 20.6608 6.87333 20.6808 6.9C20.7008 6.92667 20.7275 6.97333 20.7608 7.04C20.7608 7.06 20.7842 7.09333 20.8308 7.14L20.8708 7.25C20.9042 7.26333 20.9275 7.27667 20.9408 7.29C20.9542 7.30333 20.9642 7.32667 20.9708 7.36C20.9642 7.45333 20.9642 7.51333 20.9708 7.54C20.9775 7.56667 20.9875 7.58667 21.0008 7.6C21.0475 7.61333 21.0875 7.62667 21.1208 7.64C21.1608 7.65333 21.2275 7.69 21.3208 7.75L21.3708 7.93C21.3775 8.00333 21.3842 8.05 21.3908 8.07C21.4042 8.09 21.4275 8.10667 21.4608 8.12C21.4942 8.15333 21.5142 8.18667 21.5208 8.22L21.5508 8.35L21.6608 8.44C21.6742 8.46 21.6808 8.52333 21.6808 8.63C21.7275 8.63 21.7742 8.64667 21.8208 8.68C21.8542 8.74 21.8842 8.8 21.9108 8.86C21.9442 8.92 21.9742 8.98 22.0008 9.04C21.9742 9.06667 21.9708 9.15667 21.9908 9.31L22.0308 9.34L21.9908 9.69ZM20.1608 9.19C20.1742 9.07667 20.1808 8.99 20.1808 8.93V8.67C20.1808 8.59 20.1375 8.48 20.0508 8.34C19.9708 8.3 19.9142 8.27 19.8808 8.25C19.8475 8.23 19.8142 8.20333 19.7808 8.17L19.7308 8.2L19.3408 8.17L19.1508 8.2C19.1375 8.22667 19.1242 8.25 19.1108 8.27C19.1042 8.28333 19.0942 8.30333 19.0808 8.33C19.0742 8.35667 19.0608 8.39333 19.0408 8.44C19.0275 8.48 19.0075 8.53333 18.9808 8.6L18.9708 8.72C18.9308 8.80667 18.9042 8.86667 18.8908 8.9C18.8775 8.92667 18.8608 8.96667 18.8408 9.02L18.8508 9.09L18.8208 9.29L18.8508 9.93L18.8408 10.09C18.9142 10.13 18.9675 10.1633 19.0008 10.19C19.0342 10.21 19.0875 10.2433 19.1608 10.29L19.3408 10.33C19.5408 10.3167 19.6875 10.31 19.7808 10.31C19.8742 10.3033 19.9375 10.2833 19.9708 10.25L20.1008 10.09L20.1108 9.79C20.0975 9.74333 20.0908 9.7 20.0908 9.66C20.0908 9.62 20.0975 9.56333 20.1108 9.49C20.0975 9.47667 20.0942 9.46 20.1008 9.44C20.1075 9.42 20.1342 9.36667 20.1808 9.28L20.1608 9.19ZM25.5209 8.28C25.5142 8.29333 25.5076 8.31 25.5009 8.33C25.4942 8.35 25.4909 8.37667 25.4909 8.41L25.4209 8.51L25.2809 8.97L25.3709 9.17V9.45C25.3709 9.49667 25.3776 9.52667 25.3909 9.54L25.2509 9.91L25.2809 10.31C25.3076 10.39 25.3242 10.45 25.3309 10.49C25.3442 10.5233 25.3576 10.5933 25.3709 10.7L25.3209 10.79L25.3509 11.03L25.3009 11.13V11.35L25.2709 11.5C25.2709 11.52 25.2709 11.54 25.2709 11.56C25.2709 11.6133 25.2776 11.67 25.2909 11.73C25.3109 11.7833 25.3276 11.8467 25.3409 11.92C25.3609 12.0133 25.3709 12.13 25.3709 12.27L25.3009 12.39C25.2542 12.5833 25.2209 12.7433 25.2009 12.87C25.1809 12.9967 25.1742 13.1167 25.1809 13.23C25.2009 13.2633 25.2142 13.2933 25.2209 13.32C25.2276 13.3467 25.2376 13.3967 25.2509 13.47L25.3509 13.62C25.3709 13.86 25.3876 14.0467 25.4009 14.18C25.4142 14.3133 25.4242 14.4167 25.4309 14.49C25.4376 14.5567 25.4409 14.6 25.4409 14.62C25.4476 14.64 25.4509 14.6567 25.4509 14.67L25.2809 15.02H25.1009L24.9409 15.01L24.8809 15.02C24.8076 15.0133 24.7476 15.0067 24.7009 15C24.6609 14.9933 24.6242 14.99 24.5909 14.99C24.5576 14.9833 24.5242 14.98 24.4909 14.98H24.3709L23.8309 15.04L23.6909 15.07C23.6509 15.0833 23.5976 15.1033 23.5309 15.13L23.2809 15.16L23.0909 15.02C23.0976 14.9733 23.0942 14.94 23.0809 14.92C23.0742 14.8933 23.0542 14.8567 23.0209 14.81L23.1309 14.45V14.3C23.1442 14.22 23.1542 14.1467 23.1609 14.08C23.1742 14.0133 23.1876 13.9433 23.2009 13.87C23.2209 13.79 23.2376 13.7033 23.2509 13.61C23.2709 13.5167 23.2909 13.4 23.3109 13.26L23.2109 12.77L23.2609 12.45V12.12L23.3109 11.48C23.3042 11.4067 23.2976 11.3533 23.2909 11.32C23.2842 11.28 23.2742 11.2367 23.2609 11.19V11.05L23.2309 10.86V10.79C23.2309 10.7633 23.2242 10.7333 23.2109 10.7L23.2909 10.29C23.2909 10.2433 23.2876 10.1867 23.2809 10.12C23.2742 10.0467 23.2576 9.91333 23.2309 9.72L23.3109 9.12C23.3042 9.1 23.2976 9.08 23.2909 9.06C23.2909 9.04 23.2842 9.00333 23.2709 8.95C23.2576 8.89667 23.2409 8.82 23.2209 8.72C23.2009 8.62 23.1742 8.48333 23.1409 8.31C23.1676 8.29 23.1909 8.26 23.2109 8.22C23.2376 8.18 23.2776 8.09 23.3309 7.95L23.5509 7.93L24.3609 7.96L24.4909 8.03C24.6176 8.01667 24.7376 8 24.8509 7.98C24.9709 7.96 25.0909 7.93333 25.2109 7.9H25.2809L25.5109 8.05L25.5209 8.28ZM24.9909 6.63C24.9509 6.68333 24.9242 6.72667 24.9109 6.76C24.8976 6.78667 24.8642 6.84667 24.8109 6.94C24.7509 6.93333 24.7142 6.95667 24.7009 7.01L24.7109 7.12L24.6409 7.27L24.1109 7.23L23.6109 6.95L23.5509 6.84V6.67L23.6809 6.43L23.7009 6.3L23.6809 6.06L23.9509 5.84L24.1509 5.61C24.1776 5.61 24.2042 5.61 24.2309 5.61C24.2642 5.60333 24.3109 5.59333 24.3709 5.58C24.4176 5.61333 24.4609 5.64 24.5009 5.66C24.5409 5.67333 24.6076 5.69333 24.7009 5.72C24.7009 5.75333 24.7109 5.79 24.7309 5.83C24.7509 5.86333 24.8142 5.92667 24.9209 6.02L24.9709 6.13C24.9842 6.18333 24.9942 6.23 25.0009 6.27L25.0309 6.43L24.9909 6.63ZM31.6021 6.08L31.5521 6.17C31.5187 6.20333 31.4821 6.23 31.4421 6.25C31.4087 6.27 31.3621 6.29 31.3021 6.31L31.2621 6.36L30.7821 6.33C30.6621 6.37 30.5421 6.38 30.4221 6.36C30.3621 6.34667 30.3021 6.33667 30.2421 6.33C30.1821 6.31667 30.1221 6.30333 30.0621 6.29H29.7321L29.2621 6.38L28.8121 6.31L28.7321 6.28H28.4721C28.4587 6.28667 28.4287 6.29 28.3821 6.29C28.3354 6.29 28.2254 6.29667 28.0521 6.31C27.9521 6.38333 27.8854 6.43 27.8521 6.45C27.8254 6.47 27.8054 6.48 27.7921 6.48L27.5421 6.86L27.5021 7.13L27.4421 7.23C27.4087 7.36333 27.3854 7.50667 27.3721 7.66C27.3587 7.81333 27.3587 7.94667 27.3721 8.06L27.4221 8.14L27.4421 8.39L27.3821 8.49L27.3421 8.83L27.3721 9.01L27.3621 9.54C27.3954 9.58 27.4221 9.63 27.4421 9.69L27.4221 9.96L27.4421 10.03V10.74C27.4421 10.7467 27.4454 10.7567 27.4521 10.77C27.4587 10.7767 27.4754 10.7967 27.5021 10.83C27.5354 10.8567 27.5787 10.8967 27.6321 10.95C27.6921 11.0033 27.7754 11.0733 27.8821 11.16C27.9421 11.16 27.9954 11.16 28.0421 11.16C28.0887 11.1533 28.1387 11.15 28.1921 11.15H28.7121L28.9021 11.16L29.0021 11.15C29.1154 11.1767 29.1887 11.2633 29.2221 11.41L29.2921 11.49V11.68L29.2421 11.78L29.2221 12.08C29.1887 12.08 29.1687 12.0833 29.1621 12.09C29.1554 12.0967 29.1421 12.1133 29.1221 12.14L29.0821 12.39C29.1154 12.43 29.1521 12.4733 29.1921 12.52C29.2321 12.5667 29.2587 12.6133 29.2721 12.66L29.0821 13.05C29.0687 13.0633 29.0454 13.0733 29.0121 13.08C28.9854 13.08 28.9087 13.0867 28.7821 13.1C28.7021 13.0867 28.6421 13.08 28.6021 13.08C28.5687 13.0733 28.5087 13.06 28.4221 13.04L28.2721 13.08H28.1421C28.1087 13.0933 28.0787 13.1033 28.0521 13.11C28.0254 13.11 27.9821 13.1167 27.9221 13.13L27.8821 13.18C27.8554 13.1733 27.8287 13.1733 27.8021 13.18C27.7821 13.2067 27.7687 13.2267 27.7621 13.24L27.6521 13.4L27.5821 13.42C27.5354 13.5333 27.5054 13.59 27.4921 13.59L27.4621 13.79V13.94C27.4621 13.98 27.4654 14.0333 27.4721 14.1L27.6521 14.3L28.0821 14.42C28.1887 14.4 28.2621 14.3833 28.3021 14.37C28.3487 14.3567 28.3854 14.34 28.4121 14.32L29.0821 14.34L29.4121 14.32H29.8121L29.8621 14.3L30.7021 14.25L31.2221 14.3C31.2887 14.34 31.3354 14.3733 31.3621 14.4C31.3954 14.42 31.4421 14.4633 31.5021 14.53C31.5154 14.55 31.5221 14.6133 31.5221 14.72L31.4521 14.85C31.3921 14.89 31.3187 14.9267 31.2321 14.96L30.9321 14.93L30.6921 14.97H30.6221L30.4621 15.03C30.3087 15.01 30.1854 14.9933 30.0921 14.98C29.9987 14.9667 29.9221 14.9567 29.8621 14.95C29.8021 14.9367 29.7487 14.93 29.7021 14.93C29.6554 14.9233 29.6021 14.92 29.5421 14.92C29.5087 14.92 29.4754 14.9233 29.4421 14.93C29.4087 14.93 29.3354 14.94 29.2221 14.96L29.0321 14.89L28.9921 14.93L28.7621 14.89L28.6921 14.96C28.6187 14.96 28.5687 14.9633 28.5421 14.97C28.5154 14.9767 28.4921 14.99 28.4721 15.01C28.2921 15.0967 28.0721 15.1133 27.8121 15.06C27.7121 15.08 27.6287 15.0967 27.5621 15.11L27.3421 15.17L27.2821 15.12C27.0954 15.12 26.9687 15.0933 26.9021 15.04C26.8487 14.9867 26.8054 14.92 26.7721 14.84C26.7387 14.76 26.7221 14.6833 26.7221 14.61V14.34C26.7754 14.2667 26.8087 14.1767 26.8221 14.07C26.8354 13.9567 26.8421 13.8433 26.8421 13.73L26.8321 13.37C26.8387 13.2033 26.8587 13.03 26.8921 12.85C26.9187 12.6967 26.9154 12.5267 26.8821 12.34V12.18L26.9321 11.99L26.9121 11.92V11.43C26.8787 11.2967 26.8621 11.17 26.8621 11.05C26.8621 10.9833 26.8654 10.9167 26.8721 10.85C26.8787 10.7833 26.8921 10.7133 26.9121 10.64C26.8787 10.5267 26.8521 10.43 26.8321 10.35C26.8187 10.2633 26.8154 10.1633 26.8221 10.05C26.8221 9.96333 26.8221 9.88 26.8221 9.8C26.8287 9.71333 26.8321 9.62667 26.8321 9.54L26.9021 9.4V9.07L26.8321 8.63L26.8421 8.54C26.8354 8.52667 26.8321 8.50333 26.8321 8.47V8.26L26.8021 7.78L26.8621 7.47L26.8321 7.42L26.8521 7.25L26.8321 7.17V6.88L26.8021 6.69C26.8021 6.59 26.7987 6.49667 26.7921 6.41C26.7854 6.31667 26.7721 6.22333 26.7521 6.13C26.7254 5.97667 26.7454 5.82667 26.8121 5.68C26.8454 5.63333 26.8687 5.6 26.8821 5.58C26.8954 5.56 26.9121 5.54667 26.9321 5.54L27.1321 5.5C27.3054 5.5 27.4721 5.52 27.6321 5.56C27.8054 5.6 27.9687 5.59667 28.1221 5.55C28.2754 5.61 28.4254 5.62333 28.5721 5.59C28.7187 5.55 28.8687 5.55667 29.0221 5.61C29.1554 5.61 29.2454 5.61 29.2921 5.61C29.3454 5.60333 29.3921 5.60333 29.4321 5.61L30.0921 5.68L30.1821 5.64H30.4821L30.5921 5.66L31.0121 5.68L31.1221 5.64C31.1354 5.67333 31.1521 5.69333 31.1721 5.7C31.1921 5.70667 31.2587 5.72333 31.3721 5.75L31.5021 5.8C31.5221 5.82667 31.5387 5.85333 31.5521 5.88C31.5721 5.9 31.5887 5.92 31.6021 5.94V6.08ZM38.2357 12.62C38.2223 12.6333 38.1823 12.7 38.1157 12.82C38.0557 12.94 37.979 13.0967 37.8857 13.29C37.8723 13.2967 37.859 13.3 37.8457 13.3C37.839 13.3 37.829 13.3033 37.8157 13.31L37.6657 13.53C37.6523 13.5433 37.639 13.5633 37.6257 13.59C37.6123 13.61 37.599 13.6467 37.5857 13.7L37.4357 13.85L37.3357 14.02L37.2757 14.03C37.2157 14.0967 37.169 14.1567 37.1357 14.21L36.9757 14.48C36.9157 14.5067 36.8623 14.54 36.8157 14.58C36.769 14.62 36.719 14.6667 36.6657 14.72C36.579 14.72 36.519 14.7233 36.4857 14.73C36.459 14.73 36.4323 14.7333 36.4057 14.74L35.9457 14.77L35.7757 14.84L35.5057 14.73C35.3923 14.73 35.279 14.7333 35.1657 14.74C35.0523 14.7467 34.9357 14.7567 34.8157 14.77C34.7623 14.7833 34.719 14.7967 34.6857 14.81C34.659 14.8233 34.629 14.84 34.5957 14.86H34.4557C34.409 14.86 34.359 14.8533 34.3057 14.84L33.4557 14.92H33.3357C33.2623 14.9467 33.199 14.97 33.1457 14.99L32.9757 15.06L32.8657 14.96C32.8657 14.94 32.849 14.9267 32.8157 14.92C32.789 14.9067 32.7023 14.9 32.5557 14.9L32.4357 14.81L32.5457 13.96V13.76C32.5457 13.7133 32.539 13.6667 32.5257 13.62L32.4757 12.5V12.26C32.4757 12.2067 32.479 12.1567 32.4857 12.11L32.4157 11.74C32.4223 11.6933 32.429 11.6367 32.4357 11.57C32.4423 11.4967 32.449 11.4233 32.4557 11.35C32.469 11.27 32.479 11.2 32.4857 11.14C32.4923 11.0733 32.499 11.02 32.5057 10.98C32.4457 10.9133 32.4123 10.8667 32.4057 10.84L32.4457 10.17V10C32.4457 9.91333 32.4423 9.81 32.4357 9.69L32.4757 9.46L32.4357 9.33C32.4357 9.29667 32.439 9.24 32.4457 9.16C32.4523 9.08 32.479 8.90333 32.5257 8.63V8.13C32.5057 8.03 32.489 7.93 32.4757 7.83C32.4623 7.73 32.4523 7.63333 32.4457 7.54C32.439 7.48667 32.4357 7.43667 32.4357 7.39V7.08C32.4357 7.02667 32.439 6.97333 32.4457 6.92L32.5457 6.78C32.5657 6.78 32.5857 6.77667 32.6057 6.77C32.6323 6.75667 32.6823 6.72333 32.7557 6.67L32.8557 6.69C32.8957 6.66333 32.9323 6.64 32.9657 6.62L33.1257 6.67H33.6057L33.7257 6.74C33.7857 6.74 33.8257 6.73333 33.8457 6.72C33.8923 6.74 33.9257 6.75333 33.9457 6.76C33.9723 6.76 33.999 6.76 34.0257 6.76L34.2257 6.82L34.3757 6.83L34.5757 6.86C34.6623 6.84667 34.729 6.84 34.7757 6.84C34.8223 6.83333 34.8723 6.82667 34.9257 6.82H35.1857C35.339 6.80667 35.469 6.8 35.5757 6.8H35.8757L35.9857 6.77L36.1457 6.78C36.1657 6.81333 36.2023 6.84667 36.2557 6.88C36.3157 6.90667 36.4323 6.96333 36.6057 7.05L36.6657 7.18L36.8657 7.34C36.8657 7.38 36.8857 7.42 36.9257 7.46C36.9723 7.49333 37.0123 7.50667 37.0457 7.5L37.3957 7.81L37.4157 7.88L37.6757 7.89L37.7657 7.95H37.8257C37.8523 7.95 37.8723 7.94333 37.8857 7.93L38.0257 8.05V8.17L38.1157 8.33L38.1457 8.49L38.0757 8.63L38.0257 9.06L38.0657 9.86C38.0657 9.89333 38.069 9.92667 38.0757 9.96C38.089 9.99333 38.1123 10.0733 38.1457 10.2L38.1657 10.52L38.1457 10.69L38.1657 10.84L38.0657 11.18L38.1657 11.67V11.86C38.1657 11.9133 38.1523 11.9667 38.1257 12.02C38.0923 12.1133 38.089 12.1967 38.1157 12.27C38.149 12.35 38.169 12.41 38.1757 12.45C38.189 12.4833 38.209 12.54 38.2357 12.62ZM36.4757 10.76C36.4757 10.7133 36.4657 10.63 36.4457 10.51C36.4323 10.39 36.4123 10.2533 36.3857 10.1C36.4057 9.97333 36.4223 9.87 36.4357 9.79C36.449 9.70333 36.4623 9.60333 36.4757 9.49C36.469 9.47667 36.459 9.45667 36.4457 9.43C36.439 9.40333 36.4257 9.34667 36.4057 9.26L36.3657 9.22L36.3857 8.95L36.3357 8.84L36.3857 8.52L36.3157 8.38C36.2223 8.30667 36.1623 8.26333 36.1357 8.25C36.109 8.23667 36.079 8.23 36.0457 8.23C35.939 8.24333 35.8357 8.25333 35.7357 8.26C35.6357 8.26 35.5323 8.25333 35.4257 8.24C35.1923 8.22667 34.979 8.24 34.7857 8.28C34.599 8.29333 34.479 8.30333 34.4257 8.31C34.3723 8.31 34.329 8.31333 34.2957 8.32L34.1057 8.31C34.079 8.35 34.0357 8.38667 33.9757 8.42C33.8623 8.70667 33.8257 8.93 33.8657 9.09L33.6957 9.46L33.7457 9.58C33.7457 9.7 33.7757 9.81333 33.8357 9.92L33.8057 10.1L33.7257 10.32C33.739 10.3533 33.7657 10.4 33.8057 10.46L33.7857 10.6L33.6757 10.82C33.689 10.9067 33.7057 10.9933 33.7257 11.08C33.7457 11.16 33.7623 11.24 33.7757 11.32L33.6857 11.47L33.7057 11.67L33.6857 11.85L33.6057 11.94V12.09C33.6057 12.1367 33.609 12.1967 33.6157 12.27C33.6223 12.3367 33.629 12.42 33.6357 12.52C33.6423 12.62 33.6523 12.7467 33.6657 12.9C33.6723 12.9267 33.6857 12.95 33.7057 12.97C33.7257 12.99 33.759 13.0267 33.8057 13.08C33.8057 13.0933 33.8157 13.1133 33.8357 13.14C33.8623 13.16 33.9257 13.2167 34.0257 13.31L34.2657 13.32C34.359 13.32 34.4257 13.3033 34.4657 13.27L34.9657 13.21C35.019 13.21 35.079 13.21 35.1457 13.21C35.2123 13.2033 35.3457 13.1933 35.5457 13.18C35.6123 13.1933 35.6723 13.2067 35.7257 13.22C35.779 13.2267 35.8423 13.2367 35.9157 13.25C35.949 13.23 35.9757 13.22 35.9957 13.22C36.0223 13.2133 36.0623 13.2133 36.1157 13.22L36.1657 13.15C36.239 13.09 36.289 13.0433 36.3157 13.01C36.349 12.97 36.3923 12.91 36.4457 12.83L36.4157 12.65L36.4657 12.51L36.4057 12.35L36.3157 11.78L36.3857 11.37L36.4757 10.76ZM37.3557 9.51C37.3557 9.48333 37.3557 9.46 37.3557 9.44C37.3623 9.42 37.3623 9.39333 37.3557 9.36C37.2957 9.32667 37.2523 9.30667 37.2257 9.3C37.199 9.29333 37.1623 9.29 37.1157 9.29C37.0623 9.31667 37.0257 9.34 37.0057 9.36C36.9923 9.38 36.9723 9.41333 36.9457 9.46C36.9523 9.53333 36.9557 9.58333 36.9557 9.61C36.9623 9.63 36.9757 9.64667 36.9957 9.66L37.0457 9.77L37.2757 9.69C37.2823 9.65667 37.289 9.62667 37.2957 9.6C37.3023 9.57333 37.3223 9.54333 37.3557 9.51ZM34.0357 13.98L33.8857 13.91L33.8357 14.05L33.8457 14.12L33.9957 14.17L34.0357 14.09V13.98Z" fill="#DDDDDD"/>
</g>
<defs>
<filter id="filter0_d_69_1967" x="-4" y="0" width="50" height="32" filterUnits="userSpaceOnUse" color-interpolation-filters="sRGB">
<feFlood flood-opacity="0" result="BackgroundImageFix"/>
<feColorMatrix in="SourceAlpha" type="matrix" values="0 0 0 0 0 0 0 0 0 0 0 0 0 0 0 0 0 0 127 0" result="hardAlpha"/>
<feOffset dy="4"/>
<feGaussianBlur stdDeviation="2"/>
<feComposite in2="hardAlpha" operator="out"/>
<feColorMatrix type="matrix" values="0 0 0 0 0 0 0 0 0 0 0 0 0 0 0 0 0 0 0.25 0"/>
<feBlend mode="normal" in2="BackgroundImageFix" result="effect1_dropShadow_69_1967"/>
<feBlend mode="normal" in="SourceGraphic" in2="effect1_dropShadow_69_1967" result="shape"/>
</filter>
<clipPath id="clip0_69_1967">
<rect width="42" height="24" fill="white"/>
</clipPath>
</defs>
</svg>
