<svg width="42" height="24" viewBox="0 0 42 24" fill="none" xmlns="http://www.w3.org/2000/svg">
<g clip-path="url(#clip0_69_1972)">
<g filter="url(#filter0_d_69_1972)">
<path d="M0 0H4L9.5 1.5L13 0H42V22H24L21 24L20 22.5L18 22H0V0Z" fill="#DDDDDD"/>
</g>
<path d="M14.282 11.9C14.1753 12.08 14.1086 12.2 14.082 12.26C14.062 12.32 14.052 12.3567 14.052 12.37C14.052 12.39 14.0586 12.42 14.072 12.46C14.092 12.4933 14.1186 12.55 14.152 12.63V12.99C14.0786 13.05 14.022 13.1 13.982 13.14C13.942 13.1733 13.912 13.2033 13.892 13.23C13.872 13.25 13.8553 13.27 13.842 13.29C13.8353 13.3033 13.8286 13.32 13.822 13.34C13.7686 13.3667 13.7286 13.3967 13.702 13.43C13.6753 13.4567 13.6486 13.49 13.622 13.53L13.542 13.86L13.402 13.93L13.182 14.28C13.162 14.2933 13.142 14.3067 13.122 14.32C13.1086 14.3333 13.0886 14.3533 13.062 14.38C13.0353 14.4067 13.002 14.4433 12.962 14.49C12.922 14.5367 12.8686 14.6 12.802 14.68C12.762 14.7 12.722 14.7133 12.682 14.72C12.6486 14.7267 12.6186 14.73 12.592 14.73C12.5586 14.73 12.5153 14.7233 12.462 14.71C12.3886 14.7433 12.312 14.76 12.232 14.76H12.162C12.142 14.76 12.1186 14.7567 12.092 14.75C12.032 14.75 11.9686 14.7633 11.902 14.79C11.8353 14.81 11.7853 14.8333 11.752 14.86L11.532 14.87C11.4786 14.91 11.4386 14.9367 11.412 14.95C11.392 14.9633 11.3453 14.98 11.272 15L11.082 14.98L10.762 15.09C10.7286 15.0833 10.6986 15.08 10.672 15.08C10.6453 15.0867 10.612 15.0967 10.572 15.11C10.552 15.09 10.5186 15.0833 10.472 15.09C10.432 15.0567 10.402 15.0333 10.382 15.02C10.362 15.0067 10.3453 14.9967 10.332 14.99L10.272 14.92C10.1586 14.8667 10.0653 14.8033 9.99195 14.73L9.89195 14.49C9.79862 14.3833 9.74195 14.3167 9.72195 14.29C9.70195 14.2633 9.69195 14.2433 9.69195 14.23L9.29195 13.95L9.17195 13.79L8.77195 13.54C8.75862 13.4933 8.74862 13.45 8.74195 13.41C8.74195 13.3633 8.74195 13.2933 8.74195 13.2C8.78862 13.1067 8.81862 13.01 8.83195 12.91C8.84529 12.8033 8.85195 12.6533 8.85195 12.46C8.84529 12.46 8.83862 12.4533 8.83195 12.44C8.83195 12.4267 8.82862 12.4033 8.82195 12.37C8.81529 12.3367 8.80862 12.2833 8.80195 12.21C8.79529 12.1367 8.78862 12.04 8.78195 11.92L8.74195 10.96C8.71529 10.8533 8.70195 10.7567 8.70195 10.67C8.70195 10.4767 8.72862 10.3267 8.78195 10.22C8.77529 9.98667 8.77195 9.81 8.77195 9.69V9.4L8.70195 8.72C8.68862 8.69333 8.67529 8.66333 8.66195 8.63C8.64862 8.59 8.63529 8.55333 8.62195 8.52C8.60195 8.46 8.58529 8.40333 8.57195 8.35C8.55862 8.29667 8.55195 8.25 8.55195 8.21C8.55195 8.17667 8.55862 8.13667 8.57195 8.09C8.58529 8.03667 8.60862 7.98667 8.64195 7.94C8.71529 7.88667 8.77195 7.84 8.81195 7.8C8.85195 7.75333 8.89529 7.69333 8.94195 7.62C9.07529 7.48 9.20529 7.33667 9.33195 7.19C9.45862 7.04333 9.54862 6.9 9.60195 6.76L9.85195 6.55C9.86529 6.51667 9.87529 6.49 9.88195 6.47C9.89529 6.45 9.92195 6.41333 9.96195 6.36C10.062 6.33333 10.1486 6.3 10.222 6.26C10.3086 6.26667 10.4053 6.27667 10.512 6.29C10.6186 6.29667 10.7286 6.30667 10.842 6.32C10.962 6.32667 11.0786 6.33333 11.192 6.34C11.3053 6.34667 11.412 6.35333 11.512 6.36L11.582 6.31C11.6286 6.30333 11.682 6.29667 11.742 6.29C11.8086 6.28333 11.852 6.27667 11.872 6.27C11.8853 6.25667 11.912 6.22333 11.952 6.17C11.9986 6.15 12.0353 6.13667 12.062 6.13C12.0953 6.12333 12.1386 6.11333 12.192 6.1L12.322 6.2L12.402 6.38L12.672 6.66L12.772 6.71C12.7853 6.73 12.802 6.75333 12.822 6.78C12.8486 6.80667 12.912 6.86667 13.012 6.96C13.012 7.00667 13.0353 7.05 13.082 7.09C13.1086 7.09667 13.142 7.11667 13.182 7.15C13.222 7.17667 13.282 7.23333 13.362 7.32C13.4153 7.39333 13.462 7.44 13.502 7.46C13.542 7.47333 13.602 7.48667 13.682 7.5C13.762 7.55333 13.8353 7.6 13.902 7.64C13.9753 7.67333 14.0586 7.71 14.152 7.75C14.212 7.83 14.2553 7.90667 14.282 7.98C14.2686 8 14.2586 8.02333 14.252 8.05C14.2453 8.07 14.2353 8.10667 14.222 8.16C14.2153 8.20667 14.2053 8.27667 14.192 8.37C14.1786 8.45667 14.162 8.58 14.142 8.74L14.222 8.97C14.222 9.06333 14.2186 9.13 14.212 9.17C14.212 9.21 14.2053 9.24667 14.192 9.28H14.102L13.952 9.36L13.762 9.32L13.612 9.34C13.5386 9.28667 13.472 9.25 13.412 9.23C13.3586 9.21 13.3153 9.2 13.282 9.2C13.2553 9.2 13.222 9.20333 13.182 9.21C13.1486 9.21667 13.1153 9.22333 13.082 9.23C13.0353 9.23667 12.9953 9.24 12.962 9.24H12.862L12.582 9.14L12.442 8.99C12.462 8.95 12.4786 8.89667 12.492 8.83C12.512 8.76333 12.5286 8.7 12.542 8.64C12.5486 8.55333 12.552 8.47667 12.552 8.41V8.22C12.552 8.06667 12.5286 7.92333 12.482 7.79L12.262 7.63C12.142 7.61667 12.0553 7.60333 12.002 7.59C11.9486 7.57667 11.8853 7.56 11.812 7.54L11.582 7.53L11.482 7.63C11.4153 7.61667 11.3686 7.61 11.342 7.61C11.322 7.61 11.2853 7.61333 11.232 7.62C11.1853 7.62667 11.132 7.63667 11.072 7.65C11.0186 7.65667 10.9653 7.66667 10.912 7.68C10.8653 7.69333 10.832 7.70333 10.812 7.71C10.7586 7.76333 10.702 7.81667 10.642 7.87C10.5886 7.92333 10.5153 7.99 10.422 8.07C10.402 8.15667 10.3853 8.25333 10.372 8.36C10.3653 8.46 10.362 8.54667 10.362 8.62C10.362 8.64667 10.362 8.68333 10.362 8.73C10.3686 8.77667 10.3753 8.82667 10.382 8.88V9.12C10.362 9.14667 10.342 9.17333 10.322 9.2C10.3086 9.22667 10.302 9.26333 10.302 9.31C10.3086 9.34333 10.3153 9.38667 10.322 9.44C10.3286 9.49333 10.3386 9.54333 10.352 9.59C10.3653 9.63667 10.372 9.68 10.372 9.72C10.3786 9.76 10.382 9.79667 10.382 9.83C10.382 9.90333 10.3753 9.96 10.362 10C10.3486 10.0333 10.322 10.0833 10.282 10.15L10.232 10.25L10.292 10.42V10.69L10.222 10.81C10.182 10.81 10.1553 10.82 10.142 10.84C10.1286 10.86 10.112 10.9 10.092 10.96C10.1253 11.0267 10.1453 11.12 10.152 11.24C10.1653 11.3533 10.172 11.5267 10.172 11.76C10.1986 11.7867 10.2186 11.82 10.232 11.86C10.2453 11.9 10.2653 11.9967 10.292 12.15C10.2453 12.2567 10.2153 12.3633 10.202 12.47C10.1953 12.5233 10.1853 12.5733 10.172 12.62C10.1586 12.66 10.1453 12.7067 10.132 12.76C10.132 12.7867 10.1386 12.8133 10.152 12.84C10.1653 12.8667 10.1986 12.9167 10.252 12.99C10.2586 13.0233 10.2653 13.0533 10.272 13.08C10.2853 13.1067 10.3086 13.1267 10.342 13.14C10.402 13.1733 10.452 13.2 10.492 13.22C10.532 13.2333 10.5686 13.2467 10.602 13.26C10.6353 13.2667 10.6686 13.2767 10.702 13.29C10.742 13.2967 10.7886 13.3033 10.842 13.31C10.9153 13.31 10.962 13.2933 10.982 13.26L11.132 13.23C11.1986 13.19 11.2686 13.17 11.342 13.17C11.3553 13.17 11.3786 13.1733 11.412 13.18C11.452 13.1867 11.4953 13.1967 11.542 13.21C11.562 13.2167 11.5953 13.2233 11.642 13.23C11.6953 13.2367 11.732 13.24 11.752 13.24L11.982 13.33L12.182 13.28L12.322 13.31C12.3553 13.2767 12.3853 13.2533 12.412 13.24C12.4453 13.2267 12.482 13.21 12.522 13.19C12.5686 13.1233 12.592 13.06 12.592 13V12.92C12.592 12.8933 12.5986 12.8633 12.612 12.83V12.19L12.512 11.79V11.74L12.632 11.62C12.7253 11.5733 12.8253 11.55 12.932 11.55C12.9586 11.5567 12.9986 11.56 13.052 11.56C13.072 11.56 13.0986 11.56 13.132 11.56C13.172 11.5533 13.2086 11.5467 13.242 11.54C13.3086 11.54 13.3786 11.55 13.452 11.57C13.4853 11.5767 13.512 11.5833 13.532 11.59C13.5586 11.59 13.5886 11.59 13.622 11.59C13.7153 11.59 13.802 11.57 13.882 11.53L14.032 11.55C14.0986 11.61 14.1486 11.6533 14.182 11.68C14.222 11.7067 14.2553 11.7267 14.282 11.74V11.9ZM20.7895 13.09C20.7762 13.1233 20.7662 13.1633 20.7595 13.21C20.7595 13.25 20.7595 13.2867 20.7595 13.32L20.6495 13.49C20.5629 13.51 20.4962 13.5333 20.4495 13.56L20.2795 13.74C20.2329 13.74 20.1995 13.7467 20.1795 13.76C20.1595 13.7733 20.1362 13.7933 20.1095 13.82C20.0162 13.84 19.9762 13.8933 19.9895 13.98L19.5995 14.46C19.5662 14.4733 19.5395 14.49 19.5195 14.51C19.5062 14.53 19.4895 14.5567 19.4695 14.59L19.3295 14.66C19.1562 14.6533 19.0395 14.65 18.9795 14.65C18.9195 14.6433 18.8695 14.6333 18.8295 14.62L18.7695 14.66L18.3395 14.64L18.2795 14.68C18.2195 14.6667 18.1562 14.66 18.0895 14.66C18.0295 14.6533 17.9595 14.6533 17.8795 14.66L17.7595 14.73L17.4795 14.76C17.4462 14.7533 17.3862 14.7533 17.2995 14.76C17.2195 14.7667 17.1362 14.7833 17.0495 14.81H16.9495L16.8695 14.88C16.7962 14.8267 16.7095 14.7733 16.6095 14.72L16.5295 14.54C16.5029 14.5467 16.4729 14.5433 16.4395 14.53C16.4129 14.51 16.3595 14.4633 16.2795 14.39L15.9095 14.25C15.8695 14.2167 15.8329 14.1867 15.7995 14.16C15.7729 14.1333 15.7395 14.1 15.6995 14.06C15.6995 14.0467 15.6862 14.0333 15.6595 14.02C15.6395 14 15.5729 13.9567 15.4595 13.89L15.4095 13.75L15.4295 13.39C15.4029 13.3167 15.3862 13.26 15.3795 13.22C15.3729 13.1733 15.3695 13.1367 15.3695 13.11C15.3695 13.0433 15.3929 12.92 15.4395 12.74C15.4662 12.6133 15.4829 12.49 15.4895 12.37C15.4829 12.27 15.4729 12.1533 15.4595 12.02C15.4462 11.88 15.4395 11.7867 15.4395 11.74C15.4395 11.7 15.4395 11.6533 15.4395 11.6C15.4462 11.54 15.4562 11.4867 15.4695 11.44L15.4095 10.93V10.29C15.4095 10.1567 15.4129 10.08 15.4195 10.06C15.4329 10.04 15.4495 10.0333 15.4695 10.04L15.4395 9.76L15.5095 9.54C15.4962 9.41333 15.4829 9.31 15.4695 9.23C15.4629 9.15 15.4562 9.08667 15.4495 9.04C15.4429 8.99333 15.4362 8.96 15.4295 8.94C15.4229 8.91333 15.4162 8.89 15.4095 8.87L15.3895 8.49L15.5095 8.08C15.4895 7.99333 15.4795 7.92667 15.4795 7.88C15.5662 7.77333 15.6229 7.69667 15.6495 7.65C15.6829 7.59667 15.7262 7.53 15.7795 7.45C15.8195 7.45667 15.8495 7.43 15.8695 7.37C16.0095 7.29 16.0962 7.23 16.1295 7.19C16.1695 7.15 16.1895 7.11333 16.1895 7.08L16.3595 6.88L16.4095 6.72C16.4429 6.68667 16.4862 6.65667 16.5395 6.63C16.5995 6.60333 16.6629 6.58333 16.7295 6.57C16.7962 6.55 16.8595 6.53667 16.9195 6.53C16.9862 6.51667 17.0429 6.51 17.0895 6.51L17.4795 6.55C17.5329 6.54333 17.6029 6.53333 17.6895 6.52C17.7762 6.50667 17.8662 6.49 17.9595 6.47C18.0195 6.43 18.0629 6.40667 18.0895 6.4C18.1162 6.39333 18.1495 6.39 18.1895 6.39C18.2629 6.38333 18.3229 6.37667 18.3695 6.37C18.4229 6.35667 18.4695 6.35 18.5095 6.35L18.6295 6.34C18.6695 6.33333 18.7162 6.33333 18.7695 6.34C18.8295 6.32 18.8829 6.28333 18.9295 6.23L18.9995 6.24L19.4295 6.54L19.4995 6.55L19.8195 6.78C19.8395 6.85333 19.8995 6.93667 19.9995 7.03C20.0862 7.11 20.2529 7.22 20.4995 7.36L20.6195 7.55C20.6595 7.67 20.6929 7.74333 20.7195 7.77L20.6995 7.85L20.7195 7.94C20.7062 8.01333 20.6962 8.06667 20.6895 8.1C20.6829 8.13333 20.6695 8.18667 20.6495 8.26L20.6395 8.63L20.5995 8.81C20.6129 8.85667 20.6262 8.9 20.6395 8.94C20.6529 8.97333 20.6595 9.01 20.6595 9.05C20.6662 9.08333 20.6729 9.11 20.6795 9.13L20.6495 9.28L20.6395 9.61C20.6395 9.72333 20.6429 9.83 20.6495 9.93C20.6562 10.03 20.6695 10.1167 20.6895 10.19V10.7L20.7395 10.78L20.7195 10.9L20.7295 11.47L20.6495 11.64L20.6895 12.05L20.6795 12.22C20.6862 12.24 20.6929 12.27 20.6995 12.31C20.7129 12.3433 20.7195 12.3767 20.7195 12.41C20.7062 12.47 20.6929 12.5267 20.6795 12.58C20.6662 12.6267 20.6595 12.6633 20.6595 12.69C20.6595 12.77 20.6729 12.84 20.6995 12.9C20.7262 12.9533 20.7562 13.0167 20.7895 13.09ZM19.8895 12.75C19.8762 12.67 19.8595 12.5933 19.8395 12.52C19.8262 12.44 19.8129 12.3833 19.7995 12.35C19.7995 12.3033 19.7962 12.2333 19.7895 12.14C19.7895 12.0467 19.7895 11.8667 19.7895 11.6C19.7829 11.5133 19.7995 11.45 19.8395 11.41L19.8495 11.16C19.8562 11.0467 19.8495 10.94 19.8295 10.84C19.8162 10.7333 19.7862 10.6133 19.7395 10.48C19.7595 10.3867 19.7729 10.3133 19.7795 10.26L19.7895 10.14C19.7962 10.1133 19.7995 10.0967 19.7995 10.09C19.7995 10.0833 19.7962 10.0767 19.7895 10.07C19.7962 10.03 19.8062 9.99667 19.8195 9.97L19.8395 9.89C19.8462 9.86333 19.8529 9.84333 19.8595 9.83V9.54C19.8595 9.50667 19.8562 9.47333 19.8495 9.44C19.8495 9.4 19.8462 9.35 19.8395 9.29V9.17C19.8395 9.12333 19.8462 9.07667 19.8595 9.03L19.8195 8.54C19.8329 8.49333 19.8395 8.44333 19.8395 8.39C19.8462 8.33667 19.8495 8.29667 19.8495 8.27C19.8495 8.15 19.8329 8.04 19.7995 7.94C19.7662 7.83333 19.7262 7.76 19.6795 7.72L19.6895 7.66L19.4195 7.46L19.2195 7.45L18.8995 7.46C18.8729 7.44 18.8395 7.42333 18.7995 7.41C18.7595 7.39 18.6729 7.35667 18.5395 7.31L18.4595 7.26H18.0195L17.4795 7.29C17.4195 7.31 17.3629 7.33667 17.3095 7.37C17.2562 7.39667 17.2029 7.42333 17.1495 7.45L16.9295 7.46L16.7095 7.71C16.6895 7.70333 16.6629 7.71 16.6295 7.73C16.5962 7.75 16.5629 7.77667 16.5295 7.81C16.4962 7.84333 16.4629 7.87667 16.4295 7.91C16.4029 7.94333 16.3862 7.97333 16.3795 8L16.2595 8.11C16.2329 8.13 16.2129 8.15667 16.1995 8.19C16.1929 8.21667 16.1929 8.24 16.1995 8.26C16.2062 8.27333 16.2262 8.29667 16.2595 8.33C16.2595 8.35667 16.2629 8.38333 16.2695 8.41C16.2829 8.43667 16.3129 8.48 16.3595 8.54L16.4095 8.7C16.3962 8.74 16.3595 8.82333 16.2995 8.95V9.01C16.2995 9.03 16.3129 9.05 16.3395 9.07L16.3095 9.28C16.3229 9.29333 16.3329 9.30667 16.3395 9.32C16.3529 9.33333 16.3595 9.34667 16.3595 9.36L16.3395 9.46L16.3595 9.53L16.2795 9.76L16.2995 9.84C16.2995 9.93333 16.2895 10.0233 16.2695 10.11C16.3029 10.1433 16.3262 10.1733 16.3395 10.2C16.3529 10.2267 16.3595 10.28 16.3595 10.36L16.3095 10.46V11.1L16.1895 11.33L16.2095 11.4C16.2829 11.4333 16.3295 11.4567 16.3495 11.47C16.3762 11.4833 16.3962 11.4967 16.4095 11.51C16.4162 11.5567 16.4129 11.5967 16.3995 11.63C16.3929 11.6633 16.3795 11.7067 16.3595 11.76L16.4095 11.88C16.3962 11.98 16.3929 12.0533 16.3995 12.1C16.4062 12.1467 16.4162 12.1867 16.4295 12.22C16.4229 12.28 16.4129 12.34 16.3995 12.4C16.3929 12.4533 16.3962 12.51 16.4095 12.57C16.4229 12.6767 16.4429 12.7667 16.4695 12.84C16.5095 12.9267 16.5195 13.02 16.4995 13.12L16.5095 13.25L16.6195 13.3C16.6329 13.32 16.6462 13.3433 16.6595 13.37C16.6795 13.3967 16.7162 13.4467 16.7695 13.52L17.1795 13.74H17.3295C17.3695 13.74 17.4062 13.7433 17.4395 13.75C17.4995 13.7633 17.5562 13.78 17.6095 13.8C17.6695 13.8133 17.7095 13.82 17.7295 13.82C17.7629 13.8067 17.7895 13.8 17.8095 13.8H17.8595C17.9129 13.7867 17.9562 13.77 17.9895 13.75C18.0295 13.73 18.0695 13.7133 18.1095 13.7H18.2095C18.2429 13.7 18.2862 13.7067 18.3395 13.72L18.4795 13.69L18.8795 13.74C18.9262 13.68 18.9829 13.6367 19.0495 13.61L19.1695 13.6L19.4495 13.28C19.4829 13.2733 19.5195 13.26 19.5595 13.24C19.5995 13.2133 19.6562 13.1733 19.7295 13.12C19.7495 13.0667 19.7729 13.02 19.7995 12.98C19.8329 12.94 19.8595 12.8967 19.8795 12.85L19.8895 12.75ZM26.7809 9.69C26.7609 9.76333 26.7442 9.82333 26.7309 9.87C26.7242 9.91667 26.7109 9.96667 26.6909 10.02C26.6775 10.0733 26.6575 10.1433 26.6309 10.23C26.6109 10.31 26.5809 10.42 26.5409 10.56C26.5409 10.66 26.5442 10.7133 26.5509 10.72V10.85C26.4975 10.9633 26.4642 11.0433 26.4509 11.09C26.4375 11.13 26.4309 11.1633 26.4309 11.19L26.2909 11.3C26.2175 11.3067 26.1609 11.3167 26.1209 11.33C26.0809 11.3367 26.0142 11.37 25.9209 11.43C25.9075 11.4433 25.8909 11.45 25.8709 11.45C25.8509 11.45 25.8309 11.4567 25.8109 11.47C25.7775 11.5233 25.7509 11.5633 25.7309 11.59C25.7109 11.61 25.6709 11.6467 25.6109 11.7C25.5775 11.7 25.5509 11.71 25.5309 11.73C25.5175 11.7433 25.4975 11.7867 25.4709 11.86L25.3109 11.96H25.0809L24.9509 12.01C24.8575 12.0033 24.7875 12.0067 24.7409 12.02C24.6942 12.0333 24.6375 12.0667 24.5709 12.12C24.5442 12.1067 24.5142 12.1 24.4809 12.1C24.4542 12.0933 24.3842 12.0833 24.2709 12.07L24.2209 12.11L24.0609 12.09C24.0409 12.1233 24.0175 12.1433 23.9909 12.15C23.9642 12.15 23.9142 12.15 23.8409 12.15C23.7875 12.1633 23.7509 12.18 23.7309 12.2C23.7175 12.2133 23.6975 12.2367 23.6709 12.27L23.5509 12.35C23.5375 12.43 23.5242 12.5 23.5109 12.56C23.4975 12.62 23.4742 12.7033 23.4409 12.81C23.4542 12.8633 23.4675 12.9067 23.4809 12.94C23.4942 12.9733 23.5175 13.0067 23.5509 13.04L23.5409 13.62L23.5509 13.71C23.5175 13.7767 23.4975 13.8267 23.4909 13.86C23.4842 13.8933 23.4809 13.94 23.4809 14L23.5309 14.4C23.4909 14.4533 23.4442 14.5033 23.3909 14.55C23.3442 14.5967 23.3075 14.62 23.2809 14.62L23.2009 14.61C23.0475 14.6233 22.9475 14.6333 22.9009 14.64C22.8542 14.6467 22.7942 14.66 22.7209 14.68C22.6942 14.7067 22.6475 14.72 22.5809 14.72L22.4509 14.85L22.2709 14.87C22.2242 14.8367 22.1609 14.8033 22.0809 14.77L22.0209 14.69L21.9809 14.45C22.0542 14.33 22.1175 14.1467 22.1709 13.9V13.63L22.2709 13.17C22.2642 13.15 22.2542 13.1267 22.2409 13.1C22.2342 13.0733 22.2242 13.0467 22.2109 13.02V12.86C22.2109 12.8133 22.2075 12.7667 22.2009 12.72L22.2109 12.56L22.1709 12.46L22.2409 12.38C22.2275 12.3067 22.2175 12.25 22.2109 12.21C22.2042 12.17 22.1909 12.1133 22.1709 12.04V11.65C22.1575 11.47 22.1442 11.3467 22.1309 11.28C22.1242 11.2133 22.1275 11.1533 22.1409 11.1C22.1742 10.9867 22.1942 10.91 22.2009 10.87C22.2142 10.8233 22.2209 10.7833 22.2209 10.75L22.2709 10.39L22.2409 9.88L22.2509 9.18C22.2442 9.16667 22.2409 9.15 22.2409 9.13C22.2409 9.10333 22.2509 9.04333 22.2709 8.95L22.2109 8.52V8.29C22.2042 8.26333 22.1942 8.22333 22.1809 8.17C22.1742 8.11 22.1709 8.04 22.1709 7.96C22.1709 7.90667 22.1742 7.85333 22.1809 7.8C22.1875 7.74 22.2075 7.67333 22.2409 7.6L22.2009 7.38L22.2109 7.04L22.1609 6.98L22.1309 6.75L22.3709 6.43C22.4109 6.41667 22.4509 6.41 22.4909 6.41C22.5309 6.40333 22.6142 6.4 22.7409 6.4C22.8075 6.41333 22.8975 6.42667 23.0109 6.44C23.1242 6.44667 23.2042 6.44333 23.2509 6.43C23.3109 6.43667 23.3709 6.44 23.4309 6.44H23.5809C23.6075 6.44 23.6375 6.44333 23.6709 6.45C23.7109 6.45667 23.7542 6.46667 23.8009 6.48C23.8809 6.5 23.9475 6.51 24.0009 6.51H24.0509C24.0775 6.51 24.0975 6.50667 24.1109 6.5L24.5809 6.61C24.6009 6.61 24.6309 6.60667 24.6709 6.6C24.7109 6.58667 24.7475 6.57667 24.7809 6.57C24.9275 6.57 25.0542 6.58667 25.1609 6.62C25.2675 6.65333 25.3342 6.68667 25.3609 6.72L25.3709 6.8C25.4175 6.84 25.4509 6.87333 25.4709 6.9C25.4909 6.92667 25.5175 6.97333 25.5509 7.04C25.5509 7.06 25.5742 7.09333 25.6209 7.14L25.6609 7.25C25.6942 7.26333 25.7175 7.27667 25.7309 7.29C25.7442 7.30333 25.7542 7.32667 25.7609 7.36C25.7542 7.45333 25.7542 7.51333 25.7609 7.54C25.7675 7.56667 25.7775 7.58667 25.7909 7.6C25.8375 7.61333 25.8775 7.62667 25.9109 7.64C25.9509 7.65333 26.0175 7.69 26.1109 7.75L26.1609 7.93C26.1675 8.00333 26.1742 8.05 26.1809 8.07C26.1942 8.09 26.2175 8.10667 26.2509 8.12C26.2842 8.15333 26.3042 8.18667 26.3109 8.22L26.3409 8.35L26.4509 8.44C26.4642 8.46 26.4709 8.52333 26.4709 8.63C26.5175 8.63 26.5642 8.64667 26.6109 8.68C26.6442 8.74 26.6742 8.8 26.7009 8.86C26.7342 8.92 26.7642 8.98 26.7909 9.04C26.7642 9.06667 26.7609 9.15667 26.7809 9.31L26.8209 9.34L26.7809 9.69ZM24.9509 9.19C24.9642 9.07667 24.9709 8.99 24.9709 8.93V8.67C24.9709 8.59 24.9275 8.48 24.8409 8.34C24.7609 8.3 24.7042 8.27 24.6709 8.25C24.6375 8.23 24.6042 8.20333 24.5709 8.17L24.5209 8.2L24.1309 8.17L23.9409 8.2C23.9275 8.22667 23.9142 8.25 23.9009 8.27C23.8942 8.28333 23.8842 8.30333 23.8709 8.33C23.8642 8.35667 23.8509 8.39333 23.8309 8.44C23.8175 8.48 23.7975 8.53333 23.7709 8.6L23.7609 8.72C23.7209 8.80667 23.6942 8.86667 23.6809 8.9C23.6675 8.92667 23.6509 8.96667 23.6309 9.02L23.6409 9.09L23.6109 9.29L23.6409 9.93L23.6309 10.09C23.7042 10.13 23.7575 10.1633 23.7909 10.19C23.8242 10.21 23.8775 10.2433 23.9509 10.29L24.1309 10.33C24.3309 10.3167 24.4775 10.31 24.5709 10.31C24.6642 10.3033 24.7275 10.2833 24.7609 10.25L24.8909 10.09L24.9009 9.79C24.8875 9.74333 24.8809 9.7 24.8809 9.66C24.8809 9.62 24.8875 9.56333 24.9009 9.49C24.8875 9.47667 24.8842 9.46 24.8909 9.44C24.8975 9.42 24.9242 9.36667 24.9709 9.28L24.9509 9.19ZM34.1009 7.02C34.0876 7.06667 34.0776 7.11 34.0709 7.15L34.0609 7.33C34.0343 7.35 33.9876 7.36 33.9209 7.36L33.8509 7.43L33.7309 7.46C33.6509 7.58 33.5709 7.69 33.4909 7.79L33.4409 7.78C33.3943 7.83333 33.3576 7.87667 33.3309 7.91C33.3043 7.93667 33.2776 7.96333 33.2509 7.99C33.2243 8.01 33.1976 8.03 33.1709 8.05C33.1443 8.07 33.1109 8.09333 33.0709 8.12L32.8809 8.18C32.8143 8.27333 32.7709 8.33333 32.7509 8.36C32.7376 8.38667 32.7309 8.40667 32.7309 8.42C32.7176 8.46667 32.7043 8.50667 32.6909 8.54C32.6843 8.56667 32.6743 8.6 32.6609 8.64C32.6543 8.67333 32.6476 8.72 32.6409 8.78C32.6343 8.83333 32.6243 8.90333 32.6109 8.99C32.4376 9.17667 32.3209 9.29667 32.2609 9.35C32.2076 9.40333 32.1743 9.43333 32.1609 9.44L32.0309 9.59C31.9576 9.63667 31.9076 9.68333 31.8809 9.73C31.8543 9.77 31.8376 9.81333 31.8309 9.86L31.7809 9.88C31.7409 9.94667 31.6976 10.01 31.6509 10.07C31.6109 10.13 31.5676 10.19 31.5209 10.25L31.4809 10.44L31.4109 10.52C31.3576 10.64 31.2843 10.7533 31.1909 10.86C31.0976 10.9867 31.0376 11.0967 31.0109 11.19L30.6909 11.63L30.6309 11.97L30.5009 12.42L30.5409 12.58C30.5276 12.62 30.5176 12.65 30.5109 12.67C30.5109 12.69 30.5109 12.7233 30.5109 12.77L30.5509 12.95L30.6509 13.72L30.5709 14.02L30.5809 14.06L30.5509 14.28L30.5709 14.46L30.4309 14.7L30.3309 14.73L29.9009 14.7C29.8809 14.6933 29.8576 14.6833 29.8309 14.67C29.8109 14.65 29.7909 14.6333 29.7709 14.62C29.7109 14.5333 29.6709 14.4733 29.6509 14.44C29.6376 14.4067 29.6309 14.37 29.6309 14.33V13.86L29.7009 13.46V13.09L29.7709 12.77V12.37L29.7009 12.02C29.6743 11.9733 29.6443 11.9333 29.6109 11.9C29.5843 11.8667 29.5143 11.7967 29.4009 11.69L29.3709 11.62V11.38L29.2009 11.08V11L29.0609 10.55L28.9009 10.43C28.8543 10.3367 28.8143 10.2533 28.7809 10.18C28.7476 10.1 28.7109 10.0167 28.6709 9.93C28.6576 9.81667 28.6443 9.73667 28.6309 9.69C28.6243 9.63667 28.6143 9.58 28.6009 9.52C28.5476 9.47333 28.5043 9.41333 28.4709 9.34C28.4576 9.28667 28.4443 9.23667 28.4309 9.19L28.3909 9.05C28.3909 9.03 28.3809 9.00667 28.3609 8.98C28.3409 8.95333 28.3176 8.92333 28.2909 8.89L28.2009 8.33C28.1876 8.31 28.1643 8.28333 28.1309 8.25C28.0976 8.21 28.0643 8.17 28.0309 8.13L27.9009 7.86L27.8909 7.78C27.8376 7.70667 27.7843 7.63667 27.7309 7.57C27.6776 7.50333 27.6243 7.43333 27.5709 7.36L27.5109 6.98C27.5243 6.97333 27.5376 6.95667 27.5509 6.93C27.5643 6.89667 27.5876 6.83333 27.6209 6.74C27.8076 6.77333 27.9809 6.80333 28.1409 6.83C28.3009 6.85667 28.4276 6.88 28.5209 6.9C28.5743 6.93333 28.6276 6.95333 28.6809 6.96C28.7343 6.96667 28.7876 6.97 28.8409 6.97C28.8876 6.97 28.9443 6.96333 29.0109 6.95C29.0576 6.95 29.0909 6.95 29.1109 6.95C29.1309 6.94333 29.1476 6.93333 29.1609 6.92L29.2609 6.93C29.3009 6.89667 29.3343 6.88 29.3609 6.88C29.3876 6.87333 29.4376 6.86667 29.5109 6.86L29.8009 7C29.8076 7.02667 29.8143 7.05667 29.8209 7.09C29.8276 7.11667 29.8476 7.16333 29.8809 7.23L29.9009 7.31C29.9409 7.38333 29.9676 7.43667 29.9809 7.47C30.0009 7.50333 30.0176 7.54667 30.0309 7.6L30.0709 7.62L30.0309 7.98L30.0609 8L30.0709 8.13L30.1309 8.2L30.1509 8.3C30.1643 8.32 30.1776 8.34333 30.1909 8.37C30.2109 8.39667 30.2276 8.41667 30.2409 8.43L30.2609 8.5L30.3809 8.65C30.4143 8.79667 30.4476 8.95 30.4809 9.11C30.5143 9.26333 30.5476 9.4 30.5809 9.52L30.7109 9.59L30.7609 9.66H30.9109C30.9509 9.66 30.9876 9.65333 31.0209 9.64C31.0743 9.56667 31.1109 9.52333 31.1309 9.51C31.1576 9.49667 31.1776 9.49 31.1909 9.49C31.2509 9.35 31.3009 9.24 31.3409 9.16C31.3809 9.07333 31.4143 9 31.4409 8.94C31.4676 8.87333 31.4909 8.81333 31.5109 8.76C31.5376 8.7 31.5709 8.63 31.6109 8.55C31.6843 8.43667 31.7543 8.33667 31.8209 8.25C31.8876 8.16333 31.9709 8.05333 32.0709 7.92L32.2009 7.43L32.2509 7.33L32.2709 7.23L32.4009 6.97C32.4209 6.96333 32.4476 6.96 32.4809 6.96C32.5143 6.95333 32.5876 6.94333 32.7009 6.93L32.8609 6.98L33.0109 6.97L33.1909 7.06C33.2909 7.04667 33.3709 7.03667 33.4309 7.03C33.4909 7.01667 33.5376 7.01 33.5709 7.01C33.6043 7.00333 33.6276 6.99667 33.6409 6.99C33.6609 6.98333 33.6809 6.97667 33.7009 6.97L33.9709 6.95L34.1009 7.02Z" fill="#C22A32"/>
</g>
<defs>
<filter id="filter0_d_69_1972" x="-4" y="0" width="50" height="32" filterUnits="userSpaceOnUse" color-interpolation-filters="sRGB">
<feFlood flood-opacity="0" result="BackgroundImageFix"/>
<feColorMatrix in="SourceAlpha" type="matrix" values="0 0 0 0 0 0 0 0 0 0 0 0 0 0 0 0 0 0 127 0" result="hardAlpha"/>
<feOffset dy="4"/>
<feGaussianBlur stdDeviation="2"/>
<feComposite in2="hardAlpha" operator="out"/>
<feColorMatrix type="matrix" values="0 0 0 0 0 0 0 0 0 0 0 0 0 0 0 0 0 0 0.25 0"/>
<feBlend mode="normal" in2="BackgroundImageFix" result="effect1_dropShadow_69_1972"/>
<feBlend mode="normal" in="SourceGraphic" in2="effect1_dropShadow_69_1972" result="shape"/>
</filter>
<clipPath id="clip0_69_1972">
<rect width="42" height="24" fill="white"/>
</clipPath>
</defs>
</svg>
