<svg width="24" height="24" viewBox="0 0 24 24" fill="none" xmlns="http://www.w3.org/2000/svg">
<path d="M20 8.73737C19.8531 8.88552 19.7463 8.9798 19.6796 9.0202C19.6262 9.04714 19.5528 9.06734 19.4593 9.08081H19.239C19.1723 9.08081 19.0388 9.06734 18.8385 9.0404L18.5982 8.87879C18.5715 8.87879 18.5448 8.89226 18.5181 8.91919C18.4914 8.93266 18.4647 8.97306 18.438 9.0404L18.2578 9.08081C18.0843 9.06734 17.9441 9.06061 17.8373 9.06061C17.7438 9.04714 17.6637 9.0404 17.597 9.0404C17.5302 9.0404 17.4768 9.0404 17.4368 9.0404C17.4101 9.02694 17.3767 9.01347 17.3367 9C17.1231 9 16.9829 9.01347 16.9161 9.0404H16.5757C16.5223 9.0404 16.4823 9.05387 16.4556 9.08081C16.4022 9.22896 16.3621 9.32323 16.3354 9.36364C16.3087 9.39057 16.282 9.40404 16.2553 9.40404C16.2153 9.61953 16.1685 9.82155 16.1151 10.0101L16.1752 10.5152L16.0551 11.0606C15.9883 11.1953 15.9483 11.2896 15.9349 11.3434C15.9349 11.3973 15.9349 11.4377 15.9349 11.4646C15.8815 11.7071 15.8481 11.8754 15.8348 11.9697C15.8348 12.0505 15.8348 12.1178 15.8348 12.1717C15.768 12.266 15.7213 12.3468 15.6946 12.4141C15.6679 12.468 15.6546 12.569 15.6546 12.7172L15.5144 13.5051C15.5277 13.532 15.5611 13.5657 15.6145 13.6061C15.6813 13.6465 15.8481 13.7138 16.1151 13.8081L17.0563 13.9293C17.1231 13.8754 17.1765 13.835 17.2165 13.8081C17.2699 13.7811 17.33 13.7609 17.3967 13.7475L17.5169 13.6263H17.7572L18.8385 13.8081C18.9186 13.8754 18.9854 13.936 19.0388 13.9899C19.1055 14.0303 19.1856 14.0842 19.2791 14.1515H19.2991C19.2991 14.2189 19.2991 14.2727 19.2991 14.3131C19.3125 14.3535 19.3191 14.3939 19.3191 14.4343C19.3191 14.5421 19.3058 14.6296 19.2791 14.697C19.2524 14.7508 19.219 14.8182 19.179 14.899C18.9921 14.9663 18.8652 15.0067 18.7985 15.0202C18.7317 15.0202 18.6249 15.0202 18.4781 15.0202L18.2578 14.899C18.0442 14.8855 17.8573 14.8788 17.6971 14.8788C17.5503 14.8653 17.4034 14.8586 17.2566 14.8586C17.1231 14.8451 16.9896 14.8384 16.8561 14.8384H16.3955C16.3421 14.8653 16.2954 14.8855 16.2553 14.899C16.2286 14.899 16.1819 14.899 16.1151 14.899H15.8748C15.7413 14.899 15.6479 14.9057 15.5945 14.9192C15.5544 14.9327 15.501 14.9731 15.4343 15.0404C15.4343 15.0808 15.4209 15.1481 15.3942 15.2424C15.3675 15.3367 15.3208 15.4646 15.2541 15.6263C15.2274 15.734 15.2007 15.8687 15.174 16.0303C15.1473 16.1785 15.1339 16.3603 15.1339 16.5758L14.9937 16.8384L14.7935 18.6364L14.6133 19.3838C14.5465 19.4781 14.5065 19.5657 14.4931 19.6465C14.4931 19.7138 14.4931 19.8215 14.4931 19.9697C14.4531 20.1178 14.433 20.2391 14.433 20.3333C14.433 20.3603 14.433 20.3939 14.433 20.4343C14.4464 20.4613 14.4531 20.4882 14.4531 20.5151C14.3997 20.6229 14.3529 20.7172 14.3129 20.798C14.2862 20.8653 14.2395 20.9327 14.1727 21C14.0793 20.9865 13.9524 20.9731 13.7922 20.9596C13.632 20.9461 13.5186 20.9394 13.4518 20.9394C13.3317 20.9259 13.2315 20.9125 13.1514 20.899C13.0713 20.899 12.9111 20.8653 12.6708 20.798C12.6441 20.8249 12.6108 20.8451 12.5707 20.8586C12.544 20.8855 12.5173 20.9125 12.4906 20.9394L11.9299 20.899C11.8632 20.8316 11.7897 20.798 11.7096 20.798L11.3892 20.5556C11.3625 20.5286 11.3492 20.4478 11.3492 20.3131C11.3225 20.2997 11.3091 20.2593 11.3091 20.1919V19.7071C11.4026 19.4377 11.456 19.2626 11.4693 19.1818C11.4827 19.101 11.4894 19.0404 11.4894 19C11.5962 18.8788 11.6696 18.7778 11.7096 18.697C11.7497 18.6162 11.8231 18.4411 11.9299 18.1717C11.9299 18.1044 11.9366 18.0303 11.9499 17.9495C11.9633 17.8552 12.0033 17.6667 12.0701 17.3838V17.1212C12.0701 17.0269 12.0834 16.899 12.1101 16.7374C12.1502 16.5758 12.2236 16.2525 12.3304 15.7677C12.3838 15.7138 12.4172 15.6599 12.4305 15.6061C12.4439 15.5387 12.4639 15.3771 12.4906 15.1212L12.4305 14.899L11.8298 14.8384L11.229 14.7576C11.2023 14.7441 11.1556 14.7374 11.0889 14.7374C11.0221 14.7374 10.962 14.7441 10.9086 14.7576C10.8552 14.771 10.7952 14.7845 10.7284 14.798H10.388C10.2945 14.798 10.2478 14.8114 10.2478 14.8384C10.0075 14.8788 9.75386 14.899 9.48686 14.899C9.44681 14.9259 9.42011 14.9731 9.40676 15.0404C9.39341 15.1077 9.38673 15.2626 9.38673 15.505L9.42678 15.7677L9.26658 16.7172L9.30663 16.9192C9.19983 17.0808 9.11973 17.2088 9.06633 17.303L8.90613 17.6465L8.86608 18.0505L8.90613 18.7374L8.78598 19.7879L8.80601 20.0101C8.72591 20.1178 8.66583 20.2054 8.62578 20.2727C8.58573 20.3266 8.54568 20.4074 8.50563 20.5151C8.41218 20.596 8.33876 20.6498 8.28536 20.6768C8.24531 20.7037 8.17188 20.7306 8.06508 20.7576H7.42428L7.18398 20.5556L7.1239 20.3939C7.0705 20.3939 7.0438 20.2929 7.0438 20.0909C7.11055 20.0101 7.1506 19.936 7.16395 19.8687C7.19065 19.7879 7.21736 19.6532 7.24406 19.4646L7.204 19.3838C7.2307 19.1279 7.24406 18.9461 7.24406 18.8384V18.5556C7.27076 18.5151 7.29745 18.4411 7.32415 18.3333C7.3642 18.2121 7.41761 17.9832 7.48436 17.6465C7.51106 17.5387 7.53108 17.4242 7.54443 17.303C7.55778 17.1818 7.56446 16.9731 7.56446 16.6768C7.60451 16.5421 7.63121 16.4276 7.64456 16.3333C7.67126 16.2256 7.69128 16.1246 7.70463 16.0303C7.73133 15.936 7.75136 15.835 7.76471 15.7273C7.79141 15.6195 7.82478 15.4848 7.86483 15.3232C7.81143 15.202 7.75803 15.1212 7.70463 15.0808C7.66458 15.0404 7.59116 14.9798 7.48436 14.899H7.08385L6.78348 14.6768L6.3229 14.6364C6.136 14.6633 5.9491 14.6902 5.7622 14.7172C5.58865 14.7441 5.40843 14.771 5.22153 14.798L4.98123 14.6768C4.80768 14.6902 4.6408 14.7104 4.4806 14.7374L4.02003 14.6768L4 14.5556C4.01335 14.4882 4.02003 14.4276 4.02003 14.3737V14.1515L4.42053 13.5859C4.48728 13.5455 4.54735 13.5253 4.60075 13.5253C4.6675 13.5118 4.79433 13.5051 4.98123 13.5051C5.11473 13.4781 5.22153 13.4646 5.30163 13.4646C5.38173 13.4512 5.52858 13.4444 5.74218 13.4444L6.42303 13.404C6.79683 13.431 7.03713 13.4579 7.14393 13.4848C7.26408 13.4983 7.35753 13.5185 7.42428 13.5455L7.64456 13.5051L8.00501 13.5455L8.12516 13.4848L8.28536 13.4444L8.36546 13.2828L8.54568 11.8687L8.50563 11.4444L8.68586 11.1818V11.0202L8.80601 10.4343L8.98623 10.3131C9.01293 10.2054 9.02628 10.1111 9.02628 10.0303C9.02628 9.92256 8.99958 9.82155 8.94618 9.72727L9.02628 9.48485C9.01293 9.40404 8.96621 9.2963 8.88611 9.16162C8.81936 9.01347 8.75261 8.91246 8.68586 8.85859H8.58573C8.51898 8.85859 8.45891 8.86532 8.40551 8.87879C8.36546 8.89226 8.32541 8.91246 8.28536 8.93939H7.70463C7.58448 8.93939 7.43096 8.95286 7.24406 8.9798C7.13725 8.92593 7.05048 8.89899 6.98373 8.89899C6.93033 8.88552 6.83688 8.87879 6.70338 8.87879L6.18273 8.83838C6.04923 8.85185 5.9491 8.85859 5.88235 8.85859C5.8156 8.85859 5.75553 8.86532 5.70213 8.87879L5.22153 8.83838L5.18148 8.69697C5.20818 8.62963 5.22153 8.57576 5.22153 8.53535V8.29293L5.62203 7.72727L5.82228 7.64646C6.02253 7.64646 6.15603 7.63973 6.22278 7.62626C6.28953 7.59933 6.36963 7.54545 6.46308 7.46465L6.9637 7.64646L7.56446 7.72727L7.98498 7.68687L8.28536 7.64646C8.51231 7.70034 8.66583 7.73401 8.74593 7.74747C8.83938 7.76094 8.96621 7.76768 9.12641 7.76768L9.14643 7.58586C9.21318 7.58586 9.26658 7.57912 9.30663 7.56566C9.36003 7.53872 9.42011 7.47138 9.48686 7.36364C9.50021 7.30976 9.50688 7.26263 9.50688 7.22222C9.52023 7.18182 9.52691 7.14141 9.52691 7.10101C9.52691 7.04714 9.51356 6.95286 9.48686 6.81818C9.58031 6.25253 9.68711 5.76094 9.80726 5.34343C9.75386 5.30303 9.72716 5.23569 9.72716 5.14141C9.72716 4.9798 9.80726 4.76431 9.96746 4.49495V4.31313C9.99416 4.24579 10.0209 4.12458 10.0476 3.94949C10.0743 3.76094 10.0876 3.62626 10.0876 3.54545L10.4681 3.0404H10.9887C11.1222 3.13468 11.2424 3.18182 11.3492 3.18182L11.7497 3.62626L11.5494 5.12121L11.3892 5.54545L10.9887 5.90909C11.0555 6.09764 11.1089 6.25252 11.1489 6.37374C11.189 6.48148 11.229 6.59596 11.2691 6.71717C11.2157 6.85185 11.1823 6.9596 11.169 7.0404C11.169 7.10774 11.1556 7.22896 11.1289 7.40404C11.169 7.40404 11.2023 7.42424 11.229 7.46465C11.2691 7.50505 11.3425 7.57912 11.4493 7.68687L13.0713 7.76768L13.3116 7.72727L13.4518 7.76768C13.5319 7.74074 13.592 7.70034 13.632 7.64646C13.6854 7.59259 13.7722 7.47811 13.8924 7.30303L14.0726 6.17172V5.70707C14.126 5.58586 14.1727 5.49832 14.2128 5.44444C14.2528 5.3771 14.3262 5.28283 14.433 5.16162L14.5131 4.79798L14.4931 4.59596L14.5732 4.27273L14.4531 4.07071C14.4397 4.0303 14.433 3.96296 14.433 3.86869V3.76768C14.433 3.7138 14.4397 3.6532 14.4531 3.58586L14.8736 3.06061C14.967 3.04714 15.0405 3.0404 15.0939 3.0404C15.1606 3.0404 15.234 3.02694 15.3141 3L16.0551 3.0404C16.0951 3.08081 16.1619 3.10101 16.2553 3.10101H16.3154C16.5023 3.08754 16.6291 3.07407 16.6959 3.06061C16.7626 3.04714 16.816 3.02694 16.8561 3L17.1564 3.18182H17.3367C17.3901 3.28956 17.4168 3.41077 17.4168 3.54545C17.4435 3.59933 17.4635 3.6532 17.4768 3.70707C17.4902 3.74747 17.5035 3.80135 17.5169 3.86869L17.1564 4.15151V4.67677C17.1564 4.79798 17.1498 4.89899 17.1364 4.9798C17.1364 5.06061 17.1297 5.12795 17.1164 5.18182C17.1164 5.23569 17.1097 5.28956 17.0964 5.34343C17.043 5.57239 17.0096 5.74074 16.9962 5.84849C16.9962 5.95623 16.9962 6.10438 16.9962 6.29293L16.796 6.69697C16.7426 6.80471 16.7025 6.89899 16.6758 6.9798C16.6491 7.04714 16.6291 7.11448 16.6158 7.18182C16.6024 7.24916 16.5891 7.32997 16.5757 7.42424C16.5891 7.46465 16.5957 7.51852 16.5957 7.58586C16.6091 7.63973 16.6291 7.68687 16.6558 7.72727L16.9962 7.88889H17.3567L17.5169 7.80808C17.597 7.80808 17.7105 7.82828 17.8573 7.86869C17.9241 7.84175 17.9908 7.82828 18.0576 7.82828C18.1377 7.81481 18.3179 7.80808 18.5982 7.80808H19.0588C19.1389 7.80808 19.219 7.79461 19.2991 7.76768C19.4593 7.86195 19.5661 7.92256 19.6195 7.94949C19.6729 7.97643 19.7196 7.9899 19.7597 7.9899L19.9599 8.17172C19.9599 8.48148 19.9733 8.67003 20 8.73737ZM13.3517 8.93939L12.6308 8.85859C12.5507 8.85859 12.4839 8.87205 12.4305 8.89899C12.3771 8.91246 12.3171 8.93939 12.2503 8.9798C12.1035 8.96633 11.9766 8.95286 11.8698 8.93939C11.763 8.92593 11.6629 8.91919 11.5695 8.91919C11.4894 8.90572 11.4026 8.89899 11.3091 8.89899C11.2157 8.88552 11.1089 8.87205 10.9887 8.85859L10.8686 8.93939L10.6283 9.72727V9.94949L10.388 10.2525L10.2678 11.2828L10.0075 11.7071L10.0676 11.8485C10.0275 12.0909 9.98748 12.2929 9.94743 12.4545C9.92073 12.6027 9.89403 12.7306 9.86733 12.8384C9.85398 12.9461 9.83396 13.0404 9.80726 13.1212C9.78056 13.1886 9.75386 13.2559 9.72716 13.3232L9.68711 13.5455L9.90738 13.7475L10.2879 13.5859C10.3546 13.5859 10.4214 13.5993 10.4881 13.6263C10.5549 13.6397 10.6884 13.7003 10.8886 13.8081C10.9954 13.8081 11.0555 13.8013 11.0688 13.7879C11.0955 13.7744 11.1489 13.734 11.229 13.6667H11.4493C11.5027 13.6263 11.5962 13.6061 11.7297 13.6061H11.8298L11.97 13.7071H12.4506L12.6308 13.4646L12.7109 12.7172C12.7509 12.5556 12.771 12.4478 12.771 12.3939C12.7843 12.3266 12.791 12.2458 12.791 12.1515C12.831 12.1515 12.8511 12.0438 12.8511 11.8283L13.1514 10.9596L13.3517 10.4343L13.5319 9.0404L13.3517 8.93939Z" fill="#C22A32"/>
</svg>
