<svg width="42" height="24" viewBox="0 0 42 24" fill="none" xmlns="http://www.w3.org/2000/svg">
<g clip-path="url(#clip0_69_2296)">
<g filter="url(#filter0_d_69_2296)">
<path d="M0 0H4L9.5 1.5L13 0H42V22H24L21 24L20 22.5L18 22H0V0Z" fill="#DDDDDD"/>
</g>
<path d="M16.7202 14.47C16.7202 14.4967 16.7102 14.5267 16.6902 14.56C16.6768 14.5867 16.6535 14.6367 16.6202 14.71C16.5268 14.7367 16.4568 14.7633 16.4102 14.79C16.3302 14.85 16.2735 14.88 16.2402 14.88C16.2268 14.88 16.1868 14.8733 16.1202 14.86C16.0535 14.84 16.0035 14.8233 15.9702 14.81L15.8402 14.72C15.8268 14.64 15.8135 14.5867 15.8002 14.56C15.7935 14.5267 15.7735 14.4967 15.7402 14.47C15.7335 14.3433 15.7002 14.25 15.6402 14.19C15.6468 14.1433 15.6502 14.1133 15.6502 14.1V14.02C15.6502 14 15.6468 13.9633 15.6402 13.91C15.6135 13.8233 15.5868 13.75 15.5602 13.69C15.5335 13.63 15.4935 13.5433 15.4402 13.43C15.4135 13.39 15.3902 13.3633 15.3702 13.35C15.3502 13.3367 15.3002 13.32 15.2202 13.3C15.1202 13.3 15.0435 13.3033 14.9902 13.31C14.9368 13.31 14.8935 13.3133 14.8602 13.32C14.8335 13.32 14.8135 13.3267 14.8002 13.34C14.7868 13.3467 14.7735 13.3567 14.7602 13.37L14.5802 13.4C14.4335 13.3733 14.3035 13.3533 14.1902 13.34C14.0768 13.3267 13.9435 13.3133 13.7902 13.3L13.5802 13.37L12.7802 13.39C12.6935 13.4367 12.6335 13.4667 12.6002 13.48C12.5668 13.4867 12.5335 13.49 12.5002 13.49C12.4602 13.5233 12.4368 13.5567 12.4302 13.59C12.4235 13.6233 12.4202 13.69 12.4202 13.79C12.3468 14.0967 12.2935 14.3133 12.2602 14.44C12.2268 14.56 12.2035 14.6467 12.1902 14.7C12.1702 14.7067 12.1502 14.72 12.1302 14.74C12.1168 14.76 12.0735 14.8233 12.0002 14.93L11.6502 15.04C11.5768 14.9933 11.5168 14.94 11.4702 14.88C11.4302 14.8133 11.4102 14.73 11.4102 14.63C11.4102 14.5833 11.4135 14.53 11.4202 14.47C11.4335 14.41 11.4568 14.34 11.4902 14.26C11.5368 14.1867 11.5768 14.12 11.6102 14.06C11.6435 13.9933 11.6668 13.93 11.6802 13.87L11.7802 13.49L12.1602 12.16L12.2502 11.75C12.2702 11.7167 12.2835 11.6967 12.2902 11.69C12.2968 11.6767 12.3002 11.6667 12.3002 11.66C12.3068 11.6467 12.3135 11.6333 12.3202 11.62L12.3602 11.54C12.3868 11.4467 12.4068 11.3767 12.4202 11.33C12.4402 11.2767 12.4668 11.2167 12.5002 11.15C12.5002 11.0967 12.5202 11.0633 12.5602 11.05V10.47C12.6535 10.3033 12.7202 10.1467 12.7602 10C12.8068 9.85333 12.8302 9.67667 12.8302 9.47C12.8235 9.24333 12.8868 9.01 13.0202 8.77C13.0802 8.69 13.1268 8.62 13.1602 8.56C13.2002 8.5 13.2368 8.43 13.2702 8.35L13.2502 8.08L13.3402 7.88L13.3602 7.74L13.5202 7.07L13.5802 6.99C13.6135 6.97667 13.6502 6.96333 13.6902 6.95C13.7368 6.93667 13.7735 6.92333 13.8002 6.91C13.8602 6.96333 13.9002 7 13.9202 7.02C13.9402 7.03333 13.9502 7.04667 13.9502 7.06L13.9702 7.27L14.0902 7.53C14.1235 7.59667 14.1502 7.69667 14.1702 7.83L14.2602 8.25L14.3002 8.33L14.3602 8.75L14.5002 8.93C14.5335 9.07 14.5802 9.18333 14.6402 9.27C14.6535 9.30333 14.6635 9.33667 14.6702 9.37C14.6768 9.39667 14.6868 9.42667 14.7002 9.46C14.7135 9.5 14.7335 9.55 14.7602 9.61C14.7935 9.66333 14.8402 9.73333 14.9002 9.82C14.9068 9.93333 14.9202 10.04 14.9402 10.14C14.9602 10.24 14.9868 10.3533 15.0202 10.48L15.1602 10.64C15.1668 10.7133 15.1868 10.7833 15.2202 10.85C15.2535 10.9167 15.2902 10.9833 15.3302 11.05C15.4102 11.1567 15.4535 11.2633 15.4602 11.37C15.5135 11.4633 15.5568 11.5667 15.5902 11.68C15.6302 11.7933 15.6602 11.8967 15.6802 11.99C15.7068 12.0167 15.7268 12.04 15.7402 12.06C15.7535 12.08 15.7635 12.11 15.7702 12.15C15.7902 12.19 15.8035 12.2133 15.8102 12.22C15.8168 12.2267 15.8468 12.27 15.9002 12.35C15.9135 12.4433 15.9468 12.5233 16.0002 12.59C16.0068 12.6633 16.0402 12.74 16.1002 12.82C16.1135 12.8867 16.1268 12.9467 16.1402 13C16.1535 13.0533 16.1735 13.0867 16.2002 13.1C16.2002 13.1467 16.2102 13.19 16.2302 13.23C16.2502 13.27 16.2802 13.3233 16.3202 13.39C16.3468 13.47 16.3702 13.5533 16.3902 13.64C16.4168 13.7267 16.4368 13.8067 16.4502 13.88C16.5035 13.96 16.5502 14.03 16.5902 14.09C16.6302 14.1433 16.6602 14.1933 16.6802 14.24L16.7202 14.47ZM14.9202 11.82C14.8868 11.7733 14.8702 11.72 14.8702 11.66C14.8368 11.5533 14.8102 11.47 14.7902 11.41C14.7702 11.3433 14.7502 11.2933 14.7302 11.26C14.7168 11.2267 14.7035 11.2033 14.6902 11.19C14.6835 11.1767 14.6735 11.1633 14.6602 11.15C14.6468 11.1167 14.6368 11.0833 14.6302 11.05C14.6235 11.01 14.6168 10.97 14.6102 10.93L14.4702 10.64C14.4635 10.5933 14.4535 10.5567 14.4402 10.53C14.4268 10.5033 14.4035 10.47 14.3702 10.43C14.3568 10.3833 14.3402 10.3333 14.3202 10.28L14.2602 10.12C14.2402 10.0467 14.2235 9.98667 14.2102 9.94C14.2035 9.89333 14.1968 9.85667 14.1902 9.83C14.1835 9.80333 14.1768 9.78 14.1702 9.76C14.1702 9.74 14.1668 9.71667 14.1602 9.69L14.0302 9.4L13.9002 9.3H13.7602L13.6002 9.48C13.5602 9.62667 13.5268 9.74 13.5002 9.82C13.4802 9.89333 13.4568 9.96 13.4302 10.02L13.3402 10.14C13.3335 10.1733 13.3302 10.2 13.3302 10.22C13.3302 10.2333 13.3268 10.2533 13.3202 10.28C13.3135 10.3 13.3068 10.3333 13.3002 10.38C13.2935 10.42 13.2835 10.49 13.2702 10.59C13.2302 10.6433 13.2102 10.6867 13.2102 10.72C13.1968 10.7733 13.1735 10.8367 13.1402 10.91C13.1068 10.9833 13.0635 11.0533 13.0102 11.12C13.0102 11.1733 13.0068 11.2133 13.0002 11.24C12.9935 11.26 12.9702 11.2967 12.9302 11.35V11.6C12.9168 11.6467 12.9002 11.6967 12.8802 11.75C12.8602 11.7967 12.8502 11.8433 12.8502 11.89C12.8502 11.9433 12.8802 11.98 12.9402 12C13.0002 12.02 13.0435 12.03 13.0702 12.03C13.1035 12.03 13.1435 12.0267 13.1902 12.02C13.2368 12.0133 13.3368 11.9967 13.4902 11.97H13.9202C14.0135 11.97 14.1202 11.9733 14.2402 11.98C14.3668 11.9867 14.4935 11.9967 14.6202 12.01C14.7268 11.9833 14.8135 11.9467 14.8802 11.9L14.9202 11.82ZM23.055 12.62C23.0417 12.6333 23.0017 12.7 22.935 12.82C22.875 12.94 22.7983 13.0967 22.705 13.29C22.6917 13.2967 22.6783 13.3 22.665 13.3C22.6583 13.3 22.6483 13.3033 22.635 13.31L22.485 13.53C22.4717 13.5433 22.4583 13.5633 22.445 13.59C22.4317 13.61 22.4183 13.6467 22.405 13.7L22.255 13.85L22.155 14.02L22.095 14.03C22.035 14.0967 21.9883 14.1567 21.955 14.21L21.795 14.48C21.735 14.5067 21.6817 14.54 21.635 14.58C21.5883 14.62 21.5383 14.6667 21.485 14.72C21.3983 14.72 21.3383 14.7233 21.305 14.73C21.2783 14.73 21.2517 14.7333 21.225 14.74L20.765 14.77L20.595 14.84L20.325 14.73C20.2117 14.73 20.0983 14.7333 19.985 14.74C19.8717 14.7467 19.755 14.7567 19.635 14.77C19.5817 14.7833 19.5383 14.7967 19.505 14.81C19.4783 14.8233 19.4483 14.84 19.415 14.86H19.275C19.2283 14.86 19.1783 14.8533 19.125 14.84L18.275 14.92H18.155C18.0817 14.9467 18.0183 14.97 17.965 14.99L17.795 15.06L17.685 14.96C17.685 14.94 17.6683 14.9267 17.635 14.92C17.6083 14.9067 17.5217 14.9 17.375 14.9L17.255 14.81L17.365 13.96V13.76C17.365 13.7133 17.3583 13.6667 17.345 13.62L17.295 12.5V12.26C17.295 12.2067 17.2983 12.1567 17.305 12.11L17.235 11.74C17.2417 11.6933 17.2483 11.6367 17.255 11.57C17.2617 11.4967 17.2683 11.4233 17.275 11.35C17.2883 11.27 17.2983 11.2 17.305 11.14C17.3117 11.0733 17.3183 11.02 17.325 10.98C17.265 10.9133 17.2317 10.8667 17.225 10.84L17.265 10.17V10C17.265 9.91333 17.2617 9.81 17.255 9.69L17.295 9.46L17.255 9.33C17.255 9.29667 17.2583 9.24 17.265 9.16C17.2717 9.08 17.2983 8.90333 17.345 8.63V8.13C17.325 8.03 17.3083 7.93 17.295 7.83C17.2817 7.73 17.2717 7.63333 17.265 7.54C17.2583 7.48667 17.255 7.43667 17.255 7.39V7.08C17.255 7.02667 17.2583 6.97333 17.265 6.92L17.365 6.78C17.385 6.78 17.405 6.77667 17.425 6.77C17.4517 6.75667 17.5017 6.72333 17.575 6.67L17.675 6.69C17.715 6.66333 17.7517 6.64 17.785 6.62L17.945 6.67H18.425L18.545 6.74C18.605 6.74 18.645 6.73333 18.665 6.72C18.7117 6.74 18.745 6.75333 18.765 6.76C18.7917 6.76 18.8183 6.76 18.845 6.76L19.045 6.82L19.195 6.83L19.395 6.86C19.4817 6.84667 19.5483 6.84 19.595 6.84C19.6417 6.83333 19.6917 6.82667 19.745 6.82H20.005C20.1583 6.80667 20.2883 6.8 20.395 6.8H20.695L20.805 6.77L20.965 6.78C20.985 6.81333 21.0217 6.84667 21.075 6.88C21.135 6.90667 21.2517 6.96333 21.425 7.05L21.485 7.18L21.685 7.34C21.685 7.38 21.705 7.42 21.745 7.46C21.7917 7.49333 21.8317 7.50667 21.865 7.5L22.215 7.81L22.235 7.88L22.495 7.89L22.585 7.95H22.645C22.6717 7.95 22.6917 7.94333 22.705 7.93L22.845 8.05V8.17L22.935 8.33L22.965 8.49L22.895 8.63L22.845 9.06L22.885 9.86C22.885 9.89333 22.8883 9.92667 22.895 9.96C22.9083 9.99333 22.9317 10.0733 22.965 10.2L22.985 10.52L22.965 10.69L22.985 10.84L22.885 11.18L22.985 11.67V11.86C22.985 11.9133 22.9717 11.9667 22.945 12.02C22.9117 12.1133 22.9083 12.1967 22.935 12.27C22.9683 12.35 22.9883 12.41 22.995 12.45C23.0083 12.4833 23.0283 12.54 23.055 12.62ZM21.295 10.76C21.295 10.7133 21.285 10.63 21.265 10.51C21.2517 10.39 21.2317 10.2533 21.205 10.1C21.225 9.97333 21.2417 9.87 21.255 9.79C21.2683 9.70333 21.2817 9.60333 21.295 9.49C21.2883 9.47667 21.2783 9.45667 21.265 9.43C21.2583 9.40333 21.245 9.34667 21.225 9.26L21.185 9.22L21.205 8.95L21.155 8.84L21.205 8.52L21.135 8.38C21.0417 8.30667 20.9817 8.26333 20.955 8.25C20.9283 8.23667 20.8983 8.23 20.865 8.23C20.7583 8.24333 20.655 8.25333 20.555 8.26C20.455 8.26 20.3517 8.25333 20.245 8.24C20.0117 8.22667 19.7983 8.24 19.605 8.28C19.4183 8.29333 19.2983 8.30333 19.245 8.31C19.1917 8.31 19.1483 8.31333 19.115 8.32L18.925 8.31C18.8983 8.35 18.855 8.38667 18.795 8.42C18.6817 8.70667 18.645 8.93 18.685 9.09L18.515 9.46L18.565 9.58C18.565 9.7 18.595 9.81333 18.655 9.92L18.625 10.1L18.545 10.32C18.5583 10.3533 18.585 10.4 18.625 10.46L18.605 10.6L18.495 10.82C18.5083 10.9067 18.525 10.9933 18.545 11.08C18.565 11.16 18.5817 11.24 18.595 11.32L18.505 11.47L18.525 11.67L18.505 11.85L18.425 11.94V12.09C18.425 12.1367 18.4283 12.1967 18.435 12.27C18.4417 12.3367 18.4483 12.42 18.455 12.52C18.4617 12.62 18.4717 12.7467 18.485 12.9C18.4917 12.9267 18.505 12.95 18.525 12.97C18.545 12.99 18.5783 13.0267 18.625 13.08C18.625 13.0933 18.635 13.1133 18.655 13.14C18.6817 13.16 18.745 13.2167 18.845 13.31L19.085 13.32C19.1783 13.32 19.245 13.3033 19.285 13.27L19.785 13.21C19.8383 13.21 19.8983 13.21 19.965 13.21C20.0317 13.2033 20.165 13.1933 20.365 13.18C20.4317 13.1933 20.4917 13.2067 20.545 13.22C20.5983 13.2267 20.6617 13.2367 20.735 13.25C20.7683 13.23 20.795 13.22 20.815 13.22C20.8417 13.2133 20.8817 13.2133 20.935 13.22L20.985 13.15C21.0583 13.09 21.1083 13.0433 21.135 13.01C21.1683 12.97 21.2117 12.91 21.265 12.83L21.235 12.65L21.285 12.51L21.225 12.35L21.135 11.78L21.205 11.37L21.295 10.76ZM22.175 9.51C22.175 9.48333 22.175 9.46 22.175 9.44C22.1817 9.42 22.1817 9.39333 22.175 9.36C22.115 9.32667 22.0717 9.30667 22.045 9.3C22.0183 9.29333 21.9817 9.29 21.935 9.29C21.8817 9.31667 21.845 9.34 21.825 9.36C21.8117 9.38 21.7917 9.41333 21.765 9.46C21.7717 9.53333 21.775 9.58333 21.775 9.61C21.7817 9.63 21.795 9.64667 21.815 9.66L21.865 9.77L22.095 9.69C22.1017 9.65667 22.1083 9.62667 22.115 9.6C22.1217 9.57333 22.1417 9.54333 22.175 9.51ZM18.855 13.98L18.705 13.91L18.655 14.05L18.665 14.12L18.815 14.17L18.855 14.09V13.98ZM30.0374 12.62C30.0241 12.6333 29.9841 12.7 29.9174 12.82C29.8574 12.94 29.7808 13.0967 29.6874 13.29C29.6741 13.2967 29.6608 13.3 29.6474 13.3C29.6408 13.3 29.6308 13.3033 29.6174 13.31L29.4674 13.53C29.4541 13.5433 29.4408 13.5633 29.4274 13.59C29.4141 13.61 29.4008 13.6467 29.3874 13.7L29.2374 13.85L29.1374 14.02L29.0774 14.03C29.0174 14.0967 28.9708 14.1567 28.9374 14.21L28.7774 14.48C28.7174 14.5067 28.6641 14.54 28.6174 14.58C28.5708 14.62 28.5208 14.6667 28.4674 14.72C28.3808 14.72 28.3208 14.7233 28.2874 14.73C28.2608 14.73 28.2341 14.7333 28.2074 14.74L27.7474 14.77L27.5774 14.84L27.3074 14.73C27.1941 14.73 27.0808 14.7333 26.9674 14.74C26.8541 14.7467 26.7374 14.7567 26.6174 14.77C26.5641 14.7833 26.5208 14.7967 26.4874 14.81C26.4608 14.8233 26.4308 14.84 26.3974 14.86H26.2574C26.2108 14.86 26.1608 14.8533 26.1074 14.84L25.2574 14.92H25.1374C25.0641 14.9467 25.0008 14.97 24.9474 14.99L24.7774 15.06L24.6674 14.96C24.6674 14.94 24.6508 14.9267 24.6174 14.92C24.5908 14.9067 24.5041 14.9 24.3574 14.9L24.2374 14.81L24.3474 13.96V13.76C24.3474 13.7133 24.3408 13.6667 24.3274 13.62L24.2774 12.5V12.26C24.2774 12.2067 24.2808 12.1567 24.2874 12.11L24.2174 11.74C24.2241 11.6933 24.2308 11.6367 24.2374 11.57C24.2441 11.4967 24.2508 11.4233 24.2574 11.35C24.2708 11.27 24.2808 11.2 24.2874 11.14C24.2941 11.0733 24.3008 11.02 24.3074 10.98C24.2474 10.9133 24.2141 10.8667 24.2074 10.84L24.2474 10.17V10C24.2474 9.91333 24.2441 9.81 24.2374 9.69L24.2774 9.46L24.2374 9.33C24.2374 9.29667 24.2408 9.24 24.2474 9.16C24.2541 9.08 24.2808 8.90333 24.3274 8.63V8.13C24.3074 8.03 24.2908 7.93 24.2774 7.83C24.2641 7.73 24.2541 7.63333 24.2474 7.54C24.2408 7.48667 24.2374 7.43667 24.2374 7.39V7.08C24.2374 7.02667 24.2408 6.97333 24.2474 6.92L24.3474 6.78C24.3674 6.78 24.3874 6.77667 24.4074 6.77C24.4341 6.75667 24.4841 6.72333 24.5574 6.67L24.6574 6.69C24.6974 6.66333 24.7341 6.64 24.7674 6.62L24.9274 6.67H25.4074L25.5274 6.74C25.5874 6.74 25.6274 6.73333 25.6474 6.72C25.6941 6.74 25.7274 6.75333 25.7474 6.76C25.7741 6.76 25.8008 6.76 25.8274 6.76L26.0274 6.82L26.1774 6.83L26.3774 6.86C26.4641 6.84667 26.5308 6.84 26.5774 6.84C26.6241 6.83333 26.6741 6.82667 26.7274 6.82H26.9874C27.1408 6.80667 27.2708 6.8 27.3774 6.8H27.6774L27.7874 6.77L27.9474 6.78C27.9674 6.81333 28.0041 6.84667 28.0574 6.88C28.1174 6.90667 28.2341 6.96333 28.4074 7.05L28.4674 7.18L28.6674 7.34C28.6674 7.38 28.6874 7.42 28.7274 7.46C28.7741 7.49333 28.8141 7.50667 28.8474 7.5L29.1974 7.81L29.2174 7.88L29.4774 7.89L29.5674 7.95H29.6274C29.6541 7.95 29.6741 7.94333 29.6874 7.93L29.8274 8.05V8.17L29.9174 8.33L29.9474 8.49L29.8774 8.63L29.8274 9.06L29.8674 9.86C29.8674 9.89333 29.8708 9.92667 29.8774 9.96C29.8908 9.99333 29.9141 10.0733 29.9474 10.2L29.9674 10.52L29.9474 10.69L29.9674 10.84L29.8674 11.18L29.9674 11.67V11.86C29.9674 11.9133 29.9541 11.9667 29.9274 12.02C29.8941 12.1133 29.8908 12.1967 29.9174 12.27C29.9508 12.35 29.9708 12.41 29.9774 12.45C29.9908 12.4833 30.0108 12.54 30.0374 12.62ZM28.2774 10.76C28.2774 10.7133 28.2674 10.63 28.2474 10.51C28.2341 10.39 28.2141 10.2533 28.1874 10.1C28.2074 9.97333 28.2241 9.87 28.2374 9.79C28.2508 9.70333 28.2641 9.60333 28.2774 9.49C28.2708 9.47667 28.2608 9.45667 28.2474 9.43C28.2408 9.40333 28.2274 9.34667 28.2074 9.26L28.1674 9.22L28.1874 8.95L28.1374 8.84L28.1874 8.52L28.1174 8.38C28.0241 8.30667 27.9641 8.26333 27.9374 8.25C27.9108 8.23667 27.8808 8.23 27.8474 8.23C27.7408 8.24333 27.6374 8.25333 27.5374 8.26C27.4374 8.26 27.3341 8.25333 27.2274 8.24C26.9941 8.22667 26.7808 8.24 26.5874 8.28C26.4008 8.29333 26.2808 8.30333 26.2274 8.31C26.1741 8.31 26.1308 8.31333 26.0974 8.32L25.9074 8.31C25.8808 8.35 25.8374 8.38667 25.7774 8.42C25.6641 8.70667 25.6274 8.93 25.6674 9.09L25.4974 9.46L25.5474 9.58C25.5474 9.7 25.5774 9.81333 25.6374 9.92L25.6074 10.1L25.5274 10.32C25.5408 10.3533 25.5674 10.4 25.6074 10.46L25.5874 10.6L25.4774 10.82C25.4908 10.9067 25.5074 10.9933 25.5274 11.08C25.5474 11.16 25.5641 11.24 25.5774 11.32L25.4874 11.47L25.5074 11.67L25.4874 11.85L25.4074 11.94V12.09C25.4074 12.1367 25.4108 12.1967 25.4174 12.27C25.4241 12.3367 25.4308 12.42 25.4374 12.52C25.4441 12.62 25.4541 12.7467 25.4674 12.9C25.4741 12.9267 25.4874 12.95 25.5074 12.97C25.5274 12.99 25.5608 13.0267 25.6074 13.08C25.6074 13.0933 25.6174 13.1133 25.6374 13.14C25.6641 13.16 25.7274 13.2167 25.8274 13.31L26.0674 13.32C26.1608 13.32 26.2274 13.3033 26.2674 13.27L26.7674 13.21C26.8208 13.21 26.8808 13.21 26.9474 13.21C27.0141 13.2033 27.1474 13.1933 27.3474 13.18C27.4141 13.1933 27.4741 13.2067 27.5274 13.22C27.5808 13.2267 27.6441 13.2367 27.7174 13.25C27.7508 13.23 27.7774 13.22 27.7974 13.22C27.8241 13.2133 27.8641 13.2133 27.9174 13.22L27.9674 13.15C28.0408 13.09 28.0908 13.0433 28.1174 13.01C28.1508 12.97 28.1941 12.91 28.2474 12.83L28.2174 12.65L28.2674 12.51L28.2074 12.35L28.1174 11.78L28.1874 11.37L28.2774 10.76ZM29.1574 9.51C29.1574 9.48333 29.1574 9.46 29.1574 9.44C29.1641 9.42 29.1641 9.39333 29.1574 9.36C29.0974 9.32667 29.0541 9.30667 29.0274 9.3C29.0008 9.29333 28.9641 9.29 28.9174 9.29C28.8641 9.31667 28.8274 9.34 28.8074 9.36C28.7941 9.38 28.7741 9.41333 28.7474 9.46C28.7541 9.53333 28.7574 9.58333 28.7574 9.61C28.7641 9.63 28.7774 9.64667 28.7974 9.66L28.8474 9.77L29.0774 9.69C29.0841 9.65667 29.0908 9.62667 29.0974 9.6C29.1041 9.57333 29.1241 9.54333 29.1574 9.51ZM25.8374 13.98L25.6874 13.91L25.6374 14.05L25.6474 14.12L25.7974 14.17L25.8374 14.09V13.98Z" fill="#C22A32"/>
</g>
<defs>
<filter id="filter0_d_69_2296" x="-4" y="0" width="50" height="32" filterUnits="userSpaceOnUse" color-interpolation-filters="sRGB">
<feFlood flood-opacity="0" result="BackgroundImageFix"/>
<feColorMatrix in="SourceAlpha" type="matrix" values="0 0 0 0 0 0 0 0 0 0 0 0 0 0 0 0 0 0 127 0" result="hardAlpha"/>
<feOffset dy="4"/>
<feGaussianBlur stdDeviation="2"/>
<feComposite in2="hardAlpha" operator="out"/>
<feColorMatrix type="matrix" values="0 0 0 0 0 0 0 0 0 0 0 0 0 0 0 0 0 0 0.25 0"/>
<feBlend mode="normal" in2="BackgroundImageFix" result="effect1_dropShadow_69_2296"/>
<feBlend mode="normal" in="SourceGraphic" in2="effect1_dropShadow_69_2296" result="shape"/>
</filter>
<clipPath id="clip0_69_2296">
<rect width="42" height="24" fill="white"/>
</clipPath>
</defs>
</svg>
