<svg width="179" height="8" viewBox="0 0 179 8" fill="none" xmlns="http://www.w3.org/2000/svg">
<path d="M1.57956 -6.90448e-08L1.82466 0.123652C1.91544 0.20609 1.98807 0.296774 2.04253 0.3957C2.097 0.478138 2.15147 0.593549 2.20594 0.741937L2.34211 0.840867L2.2604 2.02797C2.36934 2.32475 2.39657 2.62152 2.34211 2.9183C2.30579 3.06669 2.27856 3.21508 2.2604 3.36347L2.15147 3.80863L2.15147 3.94052C2.15147 4.05594 2.16963 4.32798 2.20594 4.75666C2.40565 5.00397 2.53274 5.16885 2.58721 5.25128C2.64168 5.31723 2.66891 5.36669 2.66891 5.39967L3.7038 6.01796L4.43911 6.11688L4.71145 6.26527C5.07456 6.34771 5.46491 6.40541 5.8825 6.43839C6.30008 6.47136 6.6632 6.47136 6.97185 6.43839L7.18972 6.31474L7.87057 6.26527L8.1429 6.41366L9.06885 6.51259L9.55906 6.43839L11.0025 6.46312C11.1114 6.38068 11.2476 6.31473 11.411 6.26527L12.1463 6.31474L14 6.31474L14 7.77388L13.2084 7.77388C12.9724 7.80686 12.7 7.8151 12.3914 7.79862L11.7105 7.79862C11.4745 7.78213 11.2385 7.77388 11.0025 7.77388L10.6212 7.60076L9.72246 7.60076L8.52418 7.77388L8.27907 7.74915C8.24276 7.76564 8.17922 7.77388 8.08844 7.77388L7.51653 7.77388L6.2093 7.84808L5.36506 7.69969L5.22889 7.77388L4.76591 7.72442L4.54804 7.77388L3.75826 7.77388L3.24082 7.84808C2.96848 7.84808 2.7143 7.85633 2.47828 7.87281C2.22409 7.8893 1.96991 7.92227 1.71573 7.97174C1.29814 8.03769 0.889637 7.98822 0.490208 7.82335C0.363117 7.74091 0.272338 7.6832 0.217871 7.65023C0.163403 7.61725 0.127091 7.57603 0.108935 7.52657L-4.23151e-08 7.03194C-6.10532e-08 6.60327 0.0544675 6.19107 0.163402 5.79537C0.272338 5.36669 0.26326 4.96275 0.136168 4.58354C0.195584 4.44565 0.450526 3.65336 0.381273 3.51185L0.435741 2.49787L0.490208 1.45915L0.381272 1.1871C0.472052 1.15413 0.526519 1.11291 0.544675 1.06345C0.562831 1.01399 0.608221 0.849108 0.680843 0.568819L0.817014 0.247313C0.889636 0.197852 0.962259 0.156628 1.03488 0.123652C1.08935 0.0741901 1.14382 0.0329756 1.19829 -5.23788e-08L1.57956 -6.90448e-08Z" fill="#939393"/>
<g clip-path="url(#clip0_64_225)">
<path d="M14 7.77386L173.538 7.77386L173.538 6.31471L14 6.31472L14 7.77386Z" fill="#939393"/>
</g>
<path d="M177.42 -6.90448e-08L177.175 0.123652C177.085 0.20609 177.012 0.296774 176.957 0.3957C176.903 0.478138 176.849 0.593549 176.794 0.741937L176.658 0.840867L176.74 2.02797C176.631 2.32475 176.603 2.62152 176.658 2.9183C176.694 3.06669 176.721 3.21508 176.74 3.36347L176.849 3.80863L176.849 3.94052C176.849 4.05594 176.83 4.32798 176.794 4.75666C176.594 5.00397 176.467 5.16885 176.413 5.25128C176.358 5.31723 176.331 5.36669 176.331 5.39967L175.296 6.01796L174.561 6.11688L174.289 6.26527C173.925 6.34771 173.535 6.40541 173.118 6.43839C172.7 6.47136 172.337 6.47136 172.028 6.43839L171.81 6.31474L171.129 6.26527L170.857 6.41366L169.931 6.51259L169.441 6.43839L167.998 6.46312C167.889 6.38068 167.752 6.31473 167.589 6.26527L166.854 6.31474L165 6.31474L165 7.77388L165.792 7.77388C166.028 7.80686 166.3 7.8151 166.609 7.79862L167.289 7.79862C167.525 7.78213 167.762 7.77388 167.998 7.77388L168.379 7.60076L169.278 7.60076L170.476 7.77388L170.721 7.74915C170.757 7.76564 170.821 7.77388 170.912 7.77388L171.483 7.77388L172.791 7.84808L173.635 7.69969L173.771 7.77388L174.234 7.72442L174.452 7.77388L175.242 7.77388L175.759 7.84808C176.032 7.84808 176.286 7.85633 176.522 7.87281C176.776 7.8893 177.03 7.92227 177.284 7.97174C177.702 8.03769 178.11 7.98822 178.51 7.82335C178.637 7.74091 178.728 7.6832 178.782 7.65023C178.837 7.61725 178.873 7.57603 178.891 7.52657L179 7.03194C179 6.60327 178.946 6.19107 178.837 5.79537C178.728 5.36669 178.737 4.96275 178.864 4.58354C178.804 4.44565 178.549 3.65336 178.619 3.51185L178.564 2.49787L178.51 1.45915L178.619 1.1871C178.528 1.15413 178.473 1.11291 178.455 1.06345C178.437 1.01399 178.392 0.849108 178.319 0.568819L178.183 0.247313C178.11 0.197852 178.038 0.156628 177.965 0.123652C177.911 0.0741901 177.856 0.0329756 177.802 -5.23788e-08L177.42 -6.90448e-08Z" fill="#939393"/>
<defs>
<clipPath id="clip0_64_225">
<rect width="151" height="8" fill="white" transform="translate(14)"/>
</clipPath>
</defs>
</svg>
