<svg width="30" height="34" viewBox="0 0 30 34" fill="none" xmlns="http://www.w3.org/2000/svg">
<path d="M29.1892 21.1243C28.3784 22.1972 27.8378 23.069 27.5676 23.7396C27.2973 24.2761 26.6216 25.4832 25.5405 27.3609C24.3243 27.2268 23.5811 27.6963 23.3108 28.7692L23.5135 30.9823L22.0946 34L11.3514 33.1953L1.21622 27.5621L0 25.3491V21.929L2.63513 17.1006L3.04054 14.4852L2.63513 9.6568L8.10811 5.23076L12.1622 0.60354C12.7027 0.60354 13.2432 0.60354 13.7838 0.60354C14.4595 0.469419 15.4054 0.268241 16.6216 0C17.5676 0.670611 18.4459 1.2071 19.2568 1.60947C20.0676 1.87771 21.4189 2.28008 23.3108 2.81657C23.3108 3.48718 23.5135 4.22485 23.9189 5.02958C24.3243 5.70019 25.6081 6.97435 27.7703 8.85207L28.7838 11.0651C29.0541 12.1381 29.2568 13.0769 29.3919 13.8817L30 17.1006L29.1892 21.1243Z" fill="#2A39C2"/>
<path d="M15 17.4159L8.00875 11.75H21.9913L15 17.4159ZM15 18.9174L8 13.2445V22.25H22V13.2445L15 18.9174Z" fill="#DDDDDD"/>
</svg>
