<svg width="12" height="36" viewBox="0 0 12 36" fill="none" xmlns="http://www.w3.org/2000/svg">
<path d="M0 1.50432L0.122949 1.73775C0.204916 1.8242 0.295082 1.89336 0.393443 1.94524C0.47541 1.99711 0.590162 2.04898 0.737703 2.10086L0.836068 2.23054L2.0164 2.15273C2.31148 2.25648 2.60656 2.28241 2.90164 2.23054C3.04918 2.19596 3.19672 2.17002 3.34426 2.15273C3.49181 2.11815 3.63934 2.08357 3.78688 2.04898H4.59836L5.7541 2.28241L6.86065 2.10086L7.05737 2.02305H7.69672C7.72951 2.04034 7.80328 2.04898 7.91803 2.04898C8.03279 2.04898 8.30328 2.06628 8.72951 2.10086C8.97541 2.29106 9.13934 2.41209 9.22131 2.46397C9.28688 2.51584 9.33606 2.54178 9.36885 2.54178L9.9836 3.52736L10.082 4.22765L10.2295 4.48701C10.3115 4.83283 10.3689 5.20459 10.4016 5.60229C10.4344 5.99998 10.4344 6.3458 10.4016 6.63975L10.2787 6.84724L10.2295 7.49565L10.377 7.75501L10.4754 8.63686L10.4016 9.10371L10.4262 10.4783C10.3443 10.5821 10.2787 10.7118 10.2295 10.8674L10.2787 11.5677L10.2295 11.7492V24.5101C10.2295 25.8123 10.5782 32.7297 9.71312 33.7435L8.65574 34.0548C8.39344 34.0029 8.21311 33.9597 8.11475 33.9251C8 33.8905 7.90983 33.8473 7.84426 33.7954L6.19672 33.8473L5.38524 33.7954H4.40164L4.27869 33.7435L2.21312 33.6138L0.934425 33.7435C0.770492 33.8473 0.655738 33.9337 0.590164 34.0029C0.508197 34.0548 0.393445 34.1672 0.245904 34.3401C0.213118 34.3919 0.196722 34.5562 0.196722 34.8329L0.368852 35.17C0.516393 35.2738 0.69672 35.3689 0.909835 35.4553L1.64754 35.3775L2.2377 35.4813H2.40984L2.80328 35.6369C3.18032 35.585 3.48361 35.5418 3.71312 35.5072C3.94263 35.4726 4.13115 35.4467 4.27869 35.4294C4.42623 35.3948 4.55738 35.3775 4.67213 35.3775C4.78689 35.3602 4.91803 35.3516 5.06558 35.3516C5.14754 35.3516 5.22951 35.3602 5.31147 35.3775C5.39344 35.3775 5.57377 35.4035 5.85246 35.4553L6.31967 35.2738L6.41803 35.3775L6.98361 35.2738L7.15574 35.4553C7.33607 35.4553 7.45902 35.464 7.52459 35.4813C7.59016 35.4986 7.64754 35.5331 7.69672 35.585C8.13934 35.8098 8.68033 35.853 9.31967 35.7147C9.56557 35.7666 9.77049 35.8098 9.93442 35.8444L10.4754 36L10.623 35.8703C11.082 35.8703 11.3934 35.8012 11.5574 35.6628C11.6885 35.5245 11.7951 35.3516 11.877 35.1441C11.959 34.9366 12 34.7378 12 34.5476V33.8473C11.8689 33.6571 11.7869 33.4236 11.7541 33.147C11.7213 32.853 11.7049 32.5591 11.7049 32.2651L11.7295 31.3314C11.7131 30.8992 11.6639 30.4496 11.582 29.9827C11.5164 29.585 11.5246 29.1441 11.6066 28.66V28.245L11.4836 27.7522L11.5328 27.5706V26.2998C11.6148 25.9539 11.6557 25.6254 11.6557 25.3142C11.6557 25.1413 11.6475 24.9683 11.6311 24.7954C11.6148 24.6225 11.582 13.5216 11.5328 13.3314C11.6148 13.0374 11.6803 12.7867 11.7295 12.5792C11.7623 12.3544 11.7705 12.0951 11.7541 11.8011C11.7541 11.5763 11.7541 11.3602 11.7541 11.1527C11.7377 10.9279 11.7295 10.7031 11.7295 10.4783L11.5574 10.1152V9.25933L11.7295 8.11813L11.7049 7.8847C11.7213 7.85012 11.7295 7.7896 11.7295 7.70314V7.15848L11.8033 5.91352L11.6557 5.10949L11.7295 4.97981L11.6803 4.53889L11.7295 4.3314V3.57924L11.8033 3.08644C11.8033 2.82708 11.8115 2.58501 11.8279 2.36022C11.8443 2.11815 11.877 1.87607 11.9262 1.634C11.9918 1.23631 11.9426 0.847259 11.7787 0.466857C11.6967 0.345819 11.6393 0.259365 11.6066 0.207493C11.5738 0.155619 11.5328 0.121037 11.4836 0.103746L10.9918 0C10.5656 0 10.1557 0.051873 9.76229 0.155619C9.33606 0.259365 8.93443 0.25072 8.55738 0.129683C8.18033 0.285302 7.81147 0.319884 7.45082 0.233429C7.09016 0.129683 6.72131 0.146974 6.34426 0.285301C6.01639 0.285301 5.79508 0.285301 5.68033 0.285301C5.54918 0.26801 5.43442 0.26801 5.33606 0.285301L3.71312 0.466857L3.4918 0.363111H2.7541L2.48361 0.414985L1.45082 0.466857L1.18033 0.363111C1.14754 0.449565 1.10656 0.501438 1.05738 0.518729C1.0082 0.536021 0.844262 0.579249 0.565574 0.648412L0.245904 0.778095C0.196724 0.847258 0.155736 0.916422 0.122949 0.985586C0.0737686 1.03746 0.0327873 1.08933 0 1.14121V1.50432Z" fill="#DDDDDD"/>
</svg>
