<svg width="12" height="36" viewBox="0 0 12 36" fill="none" xmlns="http://www.w3.org/2000/svg">
<path d="M12 1.50432L11.8771 1.73775C11.7951 1.8242 11.7049 1.89336 11.6066 1.94524C11.5246 1.99711 11.4098 2.04898 11.2623 2.10086L11.1639 2.23054L9.9836 2.15273C9.68852 2.25648 9.39344 2.28241 9.09836 2.23054C8.95082 2.19596 8.80328 2.17002 8.65574 2.15273C8.50819 2.11815 8.36066 2.08357 8.21312 2.04898H7.40164L6.2459 2.28241L5.13935 2.10086L4.94263 2.02305H4.30328C4.27049 2.04034 4.19672 2.04898 4.08197 2.04898C3.96721 2.04898 3.69672 2.06628 3.27049 2.10086C3.02459 2.29106 2.86066 2.41209 2.77869 2.46397C2.71312 2.51584 2.66394 2.54178 2.63115 2.54178L2.0164 3.52736L1.91803 4.22765L1.77049 4.48701C1.68853 4.83283 1.63115 5.20459 1.59836 5.60229C1.56558 5.99998 1.56558 6.3458 1.59836 6.63975L1.72131 6.84724L1.77049 7.49565L1.62295 7.75501L1.52459 8.63686L1.59836 9.10371L1.57377 10.4783C1.65574 10.5821 1.72131 10.7118 1.77049 10.8674L1.72131 11.5677L1.77049 11.7492V24.5101C1.77049 25.8123 1.42177 32.7297 2.28688 33.7435L3.34426 34.0548C3.60656 34.0029 3.78689 33.9597 3.88525 33.9251C4 33.8905 4.09017 33.8473 4.15574 33.7954L5.80328 33.8473L6.61476 33.7954H7.59836L7.72131 33.7435L9.78688 33.6138L11.0656 33.7435C11.2295 33.8473 11.3443 33.9337 11.4098 34.0029C11.4918 34.0548 11.6066 34.1672 11.7541 34.3401C11.7869 34.3919 11.8033 34.5562 11.8033 34.8329L11.6311 35.17C11.4836 35.2738 11.3033 35.3689 11.0902 35.4553L10.3525 35.3775L9.7623 35.4813H9.59016L9.19672 35.6369C8.81968 35.585 8.51639 35.5418 8.28688 35.5072C8.05737 35.4726 7.86885 35.4467 7.72131 35.4294C7.57377 35.3948 7.44262 35.3775 7.32787 35.3775C7.21311 35.3602 7.08197 35.3516 6.93442 35.3516C6.85246 35.3516 6.77049 35.3602 6.68853 35.3775C6.60656 35.3775 6.42623 35.4035 6.14754 35.4553L5.68033 35.2738L5.58197 35.3775L5.01639 35.2738L4.84426 35.4553C4.66393 35.4553 4.54098 35.464 4.47541 35.4813C4.40984 35.4986 4.35246 35.5331 4.30328 35.585C3.86066 35.8098 3.31967 35.853 2.68033 35.7147C2.43443 35.7666 2.22951 35.8098 2.06558 35.8444L1.52459 36L1.37705 35.8703C0.918034 35.8703 0.606559 35.8012 0.442625 35.6628C0.311477 35.5245 0.204922 35.3516 0.122955 35.1441C0.0409882 34.9366 0 34.7378 0 34.5476V33.8473C0.131148 33.6571 0.213117 33.4236 0.245904 33.147C0.278691 32.853 0.295086 32.5591 0.295086 32.2651L0.270495 31.3314C0.286888 30.8992 0.336067 30.4496 0.418034 29.9827C0.483608 29.585 0.47541 29.1441 0.393443 28.66V28.245L0.516398 27.7522L0.467216 27.5706V26.2998C0.385249 25.9539 0.344268 25.6254 0.344268 25.3142C0.344268 25.1413 0.352458 24.9683 0.368852 24.7954C0.385245 24.6225 0.418036 13.5216 0.467216 13.3314C0.385249 13.0374 0.319675 12.7867 0.270495 12.5792C0.237708 12.3544 0.22951 12.0951 0.245904 11.8011C0.245904 11.5763 0.245904 11.3602 0.245904 11.1527C0.262297 10.9279 0.270495 10.7031 0.270495 10.4783L0.442625 10.1152V9.25933L0.270495 8.11813L0.295086 7.8847C0.278692 7.85012 0.270495 7.7896 0.270495 7.70314V7.15848L0.196721 5.91352L0.344268 5.10949L0.270495 4.97981L0.319677 4.53889L0.270495 4.3314V3.57924L0.196721 3.08644C0.196721 2.82708 0.188524 2.58501 0.17213 2.36022C0.155737 2.11815 0.122954 1.87607 0.0737732 1.634C0.00819954 1.23631 0.0573781 0.847259 0.221312 0.466857C0.30328 0.345819 0.360656 0.259365 0.393443 0.207493C0.42623 0.155619 0.467218 0.121037 0.516398 0.103746L1.0082 0C1.43443 0 1.84427 0.051873 2.23771 0.155619C2.66394 0.259365 3.06557 0.25072 3.44262 0.129683C3.81967 0.285302 4.18853 0.319884 4.54918 0.233429C4.90984 0.129683 5.27869 0.146974 5.65574 0.285301C5.98361 0.285301 6.20492 0.285301 6.31967 0.285301C6.45082 0.26801 6.56558 0.26801 6.66394 0.285301L8.28688 0.466857L8.5082 0.363111H9.2459L9.51639 0.414985L10.5492 0.466857L10.8197 0.363111C10.8525 0.449565 10.8934 0.501438 10.9426 0.518729C10.9918 0.536021 11.1557 0.579249 11.4344 0.648412L11.7541 0.778095C11.8033 0.847258 11.8443 0.916422 11.8771 0.985586C11.9262 1.03746 11.9672 1.08933 12 1.14121V1.50432Z" fill="#939393"/>
</svg>
