<svg width="14" height="8" viewBox="0 0 14 8" fill="none" xmlns="http://www.w3.org/2000/svg">
<path d="M12.4204 -6.90448e-08L12.1753 0.123652C12.0846 0.20609 12.0119 0.296774 11.9575 0.3957C11.903 0.478138 11.8485 0.593549 11.7941 0.741937L11.6579 0.840867L11.7396 2.02797C11.6307 2.32475 11.6034 2.62152 11.6579 2.9183C11.6942 3.06669 11.7214 3.21508 11.7396 3.36347L11.8485 3.80863L11.8485 3.94052C11.8485 4.05594 11.8304 4.32798 11.7941 4.75666C11.5943 5.00397 11.4673 5.16885 11.4128 5.25128C11.3583 5.31723 11.3311 5.36669 11.3311 5.39967L10.2962 6.01796L9.56089 6.11688L9.28855 6.26527C8.92544 6.34771 8.53509 6.40541 8.1175 6.43839C7.69992 6.47136 7.3368 6.47136 7.02815 6.43839L6.81028 6.31474L6.12943 6.26527L5.8571 6.41366L4.93115 6.51259L4.44094 6.43839L2.99755 6.46312C2.88861 6.38068 2.75244 6.31473 2.58904 6.26527L1.85373 6.31474L7.36652e-08 6.31474L9.88384e-09 7.77388L0.791612 7.77388C1.02764 7.80686 1.29998 7.8151 1.60863 7.79862L2.28947 7.79862C2.5255 7.78213 2.76152 7.77388 2.99755 7.77388L3.37882 7.60076L4.27754 7.60076L5.47582 7.77388L5.72093 7.74915C5.75724 7.76564 5.82078 7.77388 5.91156 7.77388L6.48347 7.77388L7.7907 7.84808L8.63494 7.69969L8.77111 7.77388L9.23409 7.72442L9.45196 7.77388L10.2417 7.77388L10.7592 7.84808C11.0315 7.84808 11.2857 7.85633 11.5217 7.87281C11.7759 7.8893 12.0301 7.92227 12.2843 7.97174C12.7019 8.03769 13.1104 7.98822 13.5098 7.82335C13.6369 7.74091 13.7277 7.6832 13.7821 7.65023C13.8366 7.61725 13.8729 7.57603 13.8911 7.52657L14 7.03194C14 6.60327 13.9455 6.19107 13.8366 5.79537C13.7277 5.36669 13.7367 4.96275 13.8638 4.58354C13.8044 4.44565 13.5495 3.65336 13.6187 3.51185L13.5643 2.49787L13.5098 1.45915L13.6187 1.1871C13.5279 1.15413 13.4735 1.11291 13.4553 1.06345C13.4372 1.01399 13.3918 0.849108 13.3192 0.568819L13.183 0.247313C13.1104 0.197852 13.0377 0.156628 12.9651 0.123652C12.9106 0.0741901 12.8562 0.0329756 12.8017 -5.23788e-08L12.4204 -6.90448e-08Z" fill="#C22A32"/>
</svg>
