<svg width="30" height="34" viewBox="0 0 30 34" fill="none" xmlns="http://www.w3.org/2000/svg">
<path d="M29.1892 21.1243C28.3784 22.1972 27.8378 23.069 27.5676 23.7396C27.2973 24.2761 26.6216 25.4832 25.5405 27.3609C24.3243 27.2268 23.5811 27.6963 23.3108 28.7692L23.5135 30.9823L22.0946 34L11.3514 33.1953L1.21622 27.5621L0 25.3491V21.929L2.63513 17.1006L3.04054 14.4852L2.63513 9.6568L8.10811 5.23076L12.1622 0.60354C12.7027 0.60354 13.2432 0.60354 13.7838 0.60354C14.4595 0.469419 15.4054 0.268241 16.6216 0C17.5676 0.670611 18.4459 1.2071 19.2568 1.60947C20.0676 1.87771 21.4189 2.28008 23.3108 2.81657C23.3108 3.48718 23.5135 4.22485 23.9189 5.02958C24.3243 5.70019 25.6081 6.97435 27.7703 8.85207L28.7838 11.0651C29.0541 12.1381 29.2568 13.0769 29.3919 13.8817L30 17.1006L29.1892 21.1243Z" fill="#C22A32"/>
<path fill-rule="evenodd" clip-rule="evenodd" d="M19.2751 22.8668C19.4685 23.0048 19.7171 23.0384 19.9393 22.9544C20.1615 22.8704 20.326 22.6808 20.374 22.4504C20.8965 19.9999 22.1623 13.797 22.6367 11.5685C22.6727 11.4005 22.6139 11.2265 22.4818 11.1137C22.3497 11.0021 22.1659 10.9697 22.0026 11.0297C19.4853 11.9609 11.7305 14.8674 8.5611 16.0398C8.35934 16.1142 8.22843 16.3074 8.23563 16.5198C8.24284 16.7322 8.38576 16.9158 8.59113 16.977C10.0131 17.4018 11.8794 17.9935 11.8794 17.9935C11.8794 17.9935 12.7502 20.6251 13.2053 21.9632C13.2618 22.13 13.3939 22.2632 13.5668 22.3076C13.741 22.3532 13.9247 22.3064 14.0544 22.184C14.7846 21.4951 15.9136 20.4307 15.9136 20.4307C15.9136 20.4307 18.0585 22.0016 19.2751 22.8668ZM12.6637 17.661L13.6725 20.9839L13.8959 18.8791C13.8959 18.8791 17.7907 15.369 20.0113 13.3673C20.0774 13.3097 20.0858 13.2113 20.0318 13.1417C19.9777 13.0733 19.8804 13.0565 19.806 13.1033C17.2322 14.745 12.6637 17.661 12.6637 17.661Z" fill="#DDDDDD"/>
</svg>
